<?xml version="1.0" standalone="no"?>
<!DOCTYPE svg PUBLIC "-//W3C//DTD SVG 20010904//EN"
 "http://www.w3.org/TR/2001/REC-SVG-20010904/DTD/svg10.dtd">
<svg version="1.0" xmlns="http://www.w3.org/2000/svg"
 width="1600.000000pt" height="1600.000000pt" viewBox="0 0 1600.000000 1600.000000"
 preserveAspectRatio="xMidYMid meet">
<metadata>
Created by potrace 1.16, written by Peter Selinger 2001-2019
</metadata>
<g transform="translate(0.000000,1600.000000) scale(0.100000,-0.100000)"
fill="#000000" stroke="none">
<path d="M0 12499 c0 -2331 3 -3498 10 -3494 5 3 10 1 10 -4 0 -6 -4 -11 -10
-11 -6 0 -10 -83 -10 -230 0 -223 1 -230 20 -230 11 0 20 -4 20 -9 0 -5 9 -12
19 -16 10 -3 21 -15 24 -26 5 -17 11 -20 35 -14 18 3 33 2 37 -4 3 -6 13 -11
22 -11 9 0 25 -8 36 -17 18 -17 19 -17 28 0 12 21 29 13 29 -14 0 -12 7 -19
20 -19 13 0 20 7 20 19 0 14 5 18 20 14 11 -3 21 -9 21 -14 1 -5 2 -15 3 -21
2 -18 37 -23 47 -7 6 11 13 9 32 -9 13 -12 29 -22 35 -22 7 0 12 -6 12 -12 0
-10 24 -13 90 -12 49 1 90 -3 90 -7 0 -5 -7 -9 -17 -9 -27 0 -10 -8 32 -14 22
-4 43 -13 48 -21 13 -23 27 -18 27 10 0 19 -5 25 -22 25 -13 0 -31 11 -40 24
-16 23 -16 25 3 42 16 14 22 16 28 5 6 -9 11 -10 15 -2 4 6 2 11 -3 11 -7 0
-11 27 -11 70 0 53 -3 70 -14 70 -20 0 -45 32 -28 37 6 3 12 18 12 34 0 24 -4
29 -25 29 -14 0 -25 -6 -25 -12 0 -10 -2 -10 -9 0 -5 8 -4 24 3 38 9 19 19 24
49 24 26 0 37 4 37 15 0 22 38 18 50 -5 6 -12 8 -30 5 -40 -4 -14 -2 -20 9
-20 9 0 16 -8 16 -19 0 -22 27 -36 45 -21 8 6 15 6 23 -2 9 -9 12 -8 12 6 0
10 5 14 11 10 6 -3 9 -17 6 -30 -3 -17 0 -24 12 -25 11 0 9 -4 -6 -11 -30 -14
-30 -38 -1 -33 32 6 41 20 40 57 -1 36 21 74 37 64 5 -4 21 -4 35 0 22 5 25
12 31 84 6 71 10 81 41 111 19 18 34 28 34 21 0 -7 16 -12 40 -12 36 0 40 3
40 24 0 27 20 39 41 25 11 -7 11 -9 -3 -9 -24 0 -22 -12 5 -38 27 -25 37 -28
37 -8 0 26 47 46 108 46 56 0 59 -1 55 -22 -4 -23 -2 -23 114 -26 83 -3 123
-8 134 -18 24 -22 29 -17 29 26 0 44 11 51 33 20 14 -20 15 -20 32 -3 17 17
17 18 -6 24 -20 5 -17 7 19 13 42 8 59 26 23 26 -22 0 -36 16 -23 24 16 9 0
58 -19 63 -11 3 -19 10 -19 15 0 13 -26 38 -39 38 -6 0 -11 -4 -11 -10 0 -6
-33 -10 -79 -10 -54 0 -81 -4 -84 -12 -4 -10 -7 -10 -18 0 -7 6 -22 12 -33 12
-16 0 -18 2 -7 13 7 6 33 12 59 12 l47 0 3 68 3 67 -41 0 c-37 0 -40 2 -26 15
19 19 33 19 52 0 9 -8 32 -15 52 -14 l37 0 -45 21 c-25 12 -49 20 -54 19 -18
-4 -56 9 -56 20 0 18 44 48 63 43 12 -4 17 0 17 14 0 11 -5 22 -12 24 -18 6
-21 48 -3 48 8 0 15 -4 15 -10 0 -12 37 -12 65 0 19 9 19 9 -2 16 -28 8 -30
24 -3 24 11 0 20 -4 20 -10 0 -16 30 -11 66 10 20 13 35 17 39 10 3 -5 17 -10
31 -10 13 0 24 -4 24 -9 0 -5 12 -11 28 -14 38 -9 45 -16 63 -66 21 -62 43
-68 35 -10 -3 24 -3 37 0 29 34 -83 47 -102 79 -117 39 -19 45 -38 15 -48 -11
-4 -18 -11 -14 -16 3 -6 12 -8 19 -5 19 7 36 -16 25 -34 -16 -25 -12 -47 3
-26 13 18 14 18 21 1 4 -11 0 -25 -8 -34 -9 -9 -13 -26 -10 -37 7 -28 -19 -47
-69 -50 -23 -1 -43 -7 -45 -13 -2 -6 1 -11 7 -11 6 0 11 -18 11 -40 l0 -40
-50 0 c-47 0 -63 -11 -40 -25 6 -3 10 -1 10 4 0 6 15 11 33 11 59 0 77 10 77
41 0 16 5 29 11 29 5 0 7 5 4 10 -3 6 3 10 14 10 15 0 21 -6 21 -23 0 -13 5
-28 12 -35 15 -15 -7 -42 -33 -42 -30 0 -22 -16 19 -37 48 -25 79 -13 84 33 2
18 0 30 -5 27 -18 -11 -25 22 -26 110 -1 75 2 93 18 111 57 62 71 80 71 87 0
5 6 9 13 9 16 0 45 33 72 80 10 19 34 49 51 65 18 17 44 56 57 87 15 32 38 66
57 79 18 13 41 42 52 64 38 76 108 130 120 94 4 -13 62 -6 88 11 12 7 12 12 2
22 -21 21 -13 50 26 85 44 39 68 44 57 11 -16 -49 -5 -92 16 -71 6 6 18 9 25
6 8 -3 14 1 14 10 0 9 13 18 32 22 43 10 57 26 56 66 -3 84 2 119 16 119 8 0
18 9 21 20 4 13 19 23 37 27 16 3 44 21 62 39 18 19 37 34 41 34 4 0 30 14 57
30 49 30 88 39 88 19 0 -5 13 -14 28 -20 51 -18 61 -83 18 -119 -9 -7 -16 -22
-16 -33 0 -12 -28 -47 -70 -87 -39 -37 -70 -73 -70 -82 0 -21 -32 -48 -57 -48
-11 0 -26 -6 -32 -14 -7 -8 -22 -17 -34 -20 -20 -5 -39 -41 -51 -95 -4 -22
-34 -39 -60 -34 -19 4 -25 0 -30 -21 -4 -15 -18 -36 -31 -48 -14 -12 -25 -29
-25 -39 0 -10 -8 -20 -17 -22 -15 -4 -15 -6 5 -12 27 -9 28 -20 1 -48 -33 -35
-59 -102 -59 -151 0 -42 -2 -46 -24 -46 -16 0 -27 7 -31 19 -3 11 -11 18 -18
16 -7 -2 -24 -6 -39 -9 -25 -6 -28 -11 -28 -49 0 -23 -8 -58 -18 -77 -15 -31
-21 -35 -49 -32 -30 3 -33 1 -33 -25 0 -16 -4 -33 -9 -39 -5 -5 -23 -44 -41
-86 -18 -44 -39 -79 -49 -83 -9 -3 -24 -17 -33 -33 -9 -15 -26 -36 -37 -46
-20 -18 -21 -18 -51 13 -35 35 -43 37 -59 17 -9 -11 -8 -22 5 -49 14 -30 15
-40 5 -66 -14 -33 -35 -45 -57 -33 -21 12 -54 82 -54 117 0 42 -18 60 -40 40
-14 -13 -15 -26 -8 -87 6 -49 15 -79 28 -93 11 -12 20 -33 20 -46 0 -38 46
-126 70 -134 17 -5 36 8 96 70 40 41 74 79 74 84 0 12 70 82 115 116 22 16 48
39 57 51 10 12 35 29 57 38 26 10 83 58 158 133 66 65 139 130 163 145 25 15
52 32 60 37 8 5 41 15 73 22 54 12 59 15 87 63 41 71 51 82 80 91 14 4 31 16
38 26 16 23 30 24 52 4 24 -22 82 -1 157 57 34 26 70 48 80 48 10 0 25 5 33
10 13 8 12 11 -7 16 -19 5 -16 11 37 65 l58 59 84 5 c45 3 98 6 117 5 51 0
110 30 111 58 0 12 6 22 13 22 7 0 21 16 31 35 20 37 98 107 140 126 14 7 26
15 26 19 0 16 43 50 64 50 13 0 44 11 67 25 51 29 84 33 75 9 -17 -43 44 -72
79 -37 14 13 21 14 36 5 26 -16 49 -15 49 3 0 10 10 15 29 15 22 0 38 10 64
42 l34 41 -20 39 c-16 30 -19 43 -11 56 14 22 92 51 158 58 28 3 58 12 67 20
9 8 26 16 38 17 13 1 22 10 26 28 6 27 8 28 70 26 51 -2 67 2 77 16 17 23 110
33 101 12 -2 -8 -13 -17 -24 -20 -23 -8 -25 -31 -3 -39 27 -10 34 -7 34 19 0
24 27 65 43 65 13 0 77 54 77 66 0 16 41 35 78 36 19 1 38 8 45 18 15 21 50
40 73 40 12 0 15 -6 11 -21 -4 -16 -1 -20 16 -17 13 2 23 12 27 28 4 18 22 33
69 57 35 17 83 49 107 72 42 39 46 40 111 40 58 -1 65 -3 50 -14 -10 -7 -14
-15 -9 -16 6 -2 12 -26 13 -54 l4 -50 -90 -8 c-104 -9 -137 -17 -143 -34 -2
-9 8 -13 32 -13 19 0 38 -4 41 -10 3 -5 23 -14 44 -20 38 -10 61 -40 61 -80 0
-15 5 -17 28 -11 22 6 27 13 25 35 -1 14 2 24 7 21 5 -3 12 6 16 20 7 28 39
51 49 35 3 -5 -1 -20 -9 -32 -9 -12 -16 -26 -16 -29 0 -9 53 -3 96 11 44 15
84 -9 84 -50 0 -40 -37 -51 -62 -21 -11 14 -26 21 -40 19 -28 -4 -30 -29 -3
-43 11 -5 34 -20 51 -32 18 -13 39 -20 51 -17 12 3 24 1 27 -5 10 -16 -5 -61
-20 -61 -8 0 -14 -7 -14 -15 0 -21 -34 -19 -54 4 -18 20 -31 21 -55 6 -28 -17
-123 -15 -153 3 -15 9 -28 20 -28 25 0 5 -12 6 -27 3 -20 -5 -24 -4 -13 3 22
15 11 19 -58 23 -43 2 -61 7 -58 15 6 15 -29 60 -53 68 -30 9 -71 -13 -122
-65 -43 -44 -55 -51 -114 -62 -39 -8 -65 -18 -65 -25 0 -7 -11 -13 -24 -13
-26 0 -51 -24 -41 -40 9 -15 41 -12 60 6 14 15 18 14 42 -3 14 -10 37 -26 52
-35 16 -11 20 -18 11 -18 -12 0 -12 -2 -2 -9 8 -4 12 -19 10 -32 -3 -21 -9
-24 -56 -27 l-53 -3 3 -32 c3 -28 7 -32 37 -35 34 -3 67 -30 53 -44 -7 -6
-120 12 -137 23 -9 6 -52 5 -65 -2 -3 -1 -18 -3 -35 -4 -32 -2 -134 -43 -159
-64 -8 -7 -27 -17 -43 -22 -28 -9 -28 -9 5 -6 28 3 35 0 43 -21 5 -13 19 -38
30 -53 l20 -29 -23 -9 c-13 -4 -40 -14 -60 -22 -21 -7 -38 -18 -38 -24 0 -18
34 -45 55 -45 15 0 16 -3 7 -12 -22 -22 -14 -48 16 -49 15 -1 56 -3 92 -4 65
-3 170 -43 170 -66 0 -12 27 -12 32 1 2 5 28 11 59 11 46 1 63 -3 90 -23 19
-14 51 -32 71 -42 20 -9 40 -21 43 -27 8 -11 47 -2 57 15 6 8 8 7 8 -1 0 -8
13 -13 29 -13 17 0 32 -4 36 -9 3 -6 22 -5 48 2 50 15 117 2 117 -22 0 -18 59
48 60 67 0 6 5 12 12 12 6 0 4 6 -7 13 -13 10 -16 21 -11 40 5 23 3 27 -14 27
-11 0 -20 6 -20 13 0 9 -3 8 -9 -2 -14 -22 -51 -3 -58 29 -3 16 -13 31 -22 33
-10 2 -3 9 22 20 37 16 48 42 26 64 -17 17 -59 -7 -59 -34 0 -20 -2 -21 -31
-11 -21 7 -34 7 -41 0 -10 -10 -20 -1 -68 56 -6 6 -29 12 -52 12 -35 0 -39 2
-28 15 7 8 9 15 5 15 -5 0 19 26 52 58 33 31 59 63 57 70 -1 6 -2 17 -3 22 0
6 -8 10 -17 10 -11 0 -14 8 -12 28 2 21 9 28 31 30 19 2 27 -1 27 -12 0 -8 10
-21 23 -27 12 -7 36 -27 54 -45 26 -28 30 -39 26 -66 -6 -42 -10 -45 -33 -30
-25 15 -30 15 -30 -1 0 -7 11 -23 24 -34 23 -20 24 -20 37 -2 19 26 59 25 59
-1 0 -15 7 -20 29 -20 31 0 48 -24 32 -44 -5 -6 -11 -22 -13 -36 -1 -14 -13
-29 -25 -35 -29 -12 -29 -20 -1 -39 21 -15 23 -15 30 4 9 26 28 26 35 0 3 -11
10 -20 15 -20 5 0 24 -15 43 -34 26 -27 43 -35 86 -41 32 -4 71 -18 94 -33 22
-15 46 -25 53 -24 7 2 12 -7 12 -23 0 -24 7 -29 40 -26 8 0 34 -17 58 -38 39
-35 41 -40 27 -54 -8 -9 -15 -19 -15 -24 0 -5 -30 -14 -67 -21 -47 -9 -74 -19
-87 -35 -13 -15 -20 -18 -23 -9 -3 6 -9 10 -14 6 -5 -3 -6 -11 -2 -17 13 -21
12 -38 -4 -44 -9 -4 -19 1 -25 11 -5 9 -14 13 -21 9 -6 -4 -36 -9 -66 -10
l-53 -3 7 27 c3 16 7 39 8 53 2 24 0 25 -48 21 -27 -1 -59 -8 -69 -13 -10 -6
-39 -12 -64 -14 -24 -3 -52 -8 -61 -13 -9 -5 -40 -12 -69 -16 -44 -6 -53 -11
-58 -32 -5 -17 -11 -22 -23 -17 -9 3 -33 6 -54 5 -35 -2 -37 0 -33 22 3 20 1
24 -14 20 -30 -8 -38 51 -15 108 7 18 -19 44 -35 34 -5 -3 -10 -1 -10 4 0 6
-7 11 -15 11 -8 0 -28 18 -43 40 -17 24 -35 39 -48 40 -20 0 -21 -4 -16 -47 4
-40 3 -45 -12 -40 -10 4 -16 1 -16 -8 0 -8 -5 -15 -11 -15 -7 0 -9 -10 -5 -25
4 -14 2 -25 -4 -25 -27 0 -6 -48 41 -92 28 -26 48 -52 45 -57 -3 -5 2 -7 12
-4 18 4 132 -80 132 -98 0 -5 7 -9 15 -9 11 0 14 -13 13 -56 -2 -56 -16 -77
-45 -67 -9 3 -13 -6 -13 -26 0 -23 -4 -29 -15 -25 -9 4 -15 0 -15 -10 0 -12
10 -16 41 -16 22 0 38 -4 35 -9 -7 -10 40 -3 77 12 31 14 33 20 12 37 -8 7
-13 16 -10 20 3 4 -5 10 -16 13 -13 4 -20 12 -17 24 2 14 14 18 50 20 51 2 84
-18 73 -44 -4 -12 0 -14 15 -10 11 3 34 -4 52 -16 55 -37 128 -55 243 -62 61
-3 158 -12 218 -19 59 -6 107 -9 107 -5 0 4 -9 9 -20 12 -11 3 -20 11 -20 17
0 9 14 11 50 6 62 -8 82 -15 74 -27 -3 -5 -21 -7 -40 -3 -20 4 -34 2 -34 -4 0
-22 237 -35 315 -18 47 11 54 15 30 17 -16 1 -39 1 -50 0 -11 -1 -36 1 -55 4
l-35 7 23 18 c25 21 114 43 137 34 18 -7 20 7 3 24 -9 9 -9 15 0 24 10 10 19
9 43 -5 42 -23 56 -22 61 8 3 14 1 25 -3 25 -5 0 -9 7 -9 15 0 8 -8 24 -18 34
-41 46 -44 51 -28 51 7 0 17 -8 21 -17 7 -17 8 -16 15 2 5 11 9 15 9 10 1 -6
18 -9 41 -7 25 3 45 -1 54 -10 14 -14 43 -15 221 -5 43 3 47 -17 5 -21 -19 -2
-40 -8 -47 -14 -7 -5 -24 -11 -38 -12 -14 -2 -37 -15 -51 -29 -14 -15 -41 -32
-60 -39 -40 -14 -41 -19 -13 -36 18 -11 24 -11 38 2 23 21 37 20 53 -1 21 -29
50 -27 183 9 22 6 47 12 55 12 9 1 21 5 28 10 7 4 12 2 12 -3 0 -7 6 -8 18 -2
9 5 45 21 80 35 67 28 107 33 117 15 6 -9 57 -4 77 7 17 11 -6 36 -28 31 -13
-2 -24 -1 -24 4 0 4 -12 12 -27 17 l-28 10 30 11 c17 7 35 19 42 27 10 13 20
14 57 6 27 -5 49 -6 52 -1 12 20 26 8 20 -17 -5 -17 -3 -23 4 -19 5 3 10 13
10 21 0 8 7 14 15 14 8 0 15 5 15 11 0 5 5 7 10 4 6 -3 10 -17 10 -31 0 -30
29 -43 81 -37 23 3 41 0 50 -9 8 -8 20 -13 27 -10 10 3 12 -5 6 -34 -14 -74
-13 -79 24 -76 18 1 41 -2 51 -8 19 -10 33 10 61 88 7 17 19 32 26 32 16 0 19
26 4 35 -5 3 -20 -1 -32 -9 -36 -25 -60 -19 -113 29 -27 25 -53 45 -57 45 -21
0 -4 29 22 39 44 15 38 36 -10 36 -22 0 -45 6 -51 12 -15 15 26 26 211 54 145
22 175 33 218 76 41 42 82 21 82 -41 0 -26 18 -34 35 -17 10 10 65 18 174 27
69 5 85 10 76 25 -4 5 3 9 14 9 12 0 21 -6 21 -13 0 -12 51 -27 145 -43 22 -4
45 -10 50 -14 6 -4 22 -10 38 -14 39 -9 34 -21 -21 -47 -26 -12 -55 -29 -65
-37 -26 -23 -45 -2 -28 34 16 37 -1 57 -42 48 -19 -4 -27 -3 -23 4 9 15 -91 7
-110 -9 -8 -6 -14 -17 -14 -25 0 -16 43 -64 59 -64 6 0 11 -6 11 -13 0 -9 -10
-13 -27 -12 -27 1 -28 0 -24 -44 2 -25 6 -40 8 -33 3 7 18 19 35 28 16 8 27
21 25 28 -3 7 -2 19 3 26 9 15 90 24 90 10 0 -6 -38 -48 -85 -95 -47 -46 -85
-89 -85 -94 0 -15 -152 -255 -167 -264 -7 -4 -13 -13 -13 -20 0 -7 -16 -30
-35 -52 -20 -22 -38 -50 -41 -62 -4 -13 -12 -23 -19 -23 -8 0 -23 -12 -36 -28
-14 -17 -23 -22 -26 -14 -3 6 -11 12 -18 12 -29 0 -24 20 10 36 20 9 36 24 36
35 1 11 2 25 3 32 1 6 5 15 10 18 20 15 -8 49 -61 74 -84 38 -97 25 -61 -62
19 -46 9 -163 -13 -163 -5 0 -9 -4 -9 -10 0 -5 9 -10 19 -10 20 0 37 -32 26
-50 -3 -5 -13 -10 -20 -10 -8 0 -19 -9 -25 -20 -6 -11 -15 -18 -21 -15 -5 4
-12 -2 -15 -12 -3 -10 -9 -25 -14 -33 -5 -8 -23 -43 -40 -77 -17 -33 -37 -66
-45 -73 -7 -6 -13 -19 -12 -29 1 -15 4 -17 19 -7 10 6 18 14 18 18 0 5 5 8 12
8 6 0 19 7 29 16 28 26 85 9 98 -28 7 -19 7 -35 2 -42 -15 -18 -39 -96 -30
-96 5 0 9 -13 9 -29 0 -31 14 -49 25 -31 11 17 45 11 45 -8 0 -13 -7 -17 -27
-16 -16 1 -30 3 -33 4 -12 6 -46 -3 -61 -17 -15 -13 -20 -10 -45 23 -20 25
-25 39 -16 42 6 2 10 8 6 13 -3 5 -12 2 -20 -6 -9 -8 -19 -13 -24 -10 -13 8
-23 -35 -22 -93 1 -46 -1 -52 -13 -42 -12 10 -15 9 -15 -4 0 -10 9 -16 25 -16
14 0 25 5 25 10 0 14 27 12 34 -2 3 -9 8 -8 16 5 6 9 16 17 22 17 7 0 21 9 32
19 24 21 88 39 84 23 -2 -6 6 -17 17 -26 17 -13 18 -18 8 -35 -17 -27 -16 -39
2 -57 20 -21 19 -34 -3 -34 -20 0 -52 -29 -52 -47 0 -11 56 -3 77 10 6 4 8
-13 5 -43 -3 -31 0 -55 7 -64 10 -11 9 -27 0 -70 -7 -30 -17 -52 -21 -50 -4 3
-9 -13 -9 -35 -1 -23 -2 -47 -3 -53 -1 -7 11 -14 27 -16 44 -5 35 -40 -27
-100 -57 -56 -66 -55 -66 9 0 38 16 69 35 69 20 0 19 19 -1 41 -15 17 -19 17
-43 3 -31 -18 -55 -62 -42 -78 16 -21 19 -55 5 -67 -8 -6 -14 -17 -14 -23 0
-15 -37 -56 -51 -56 -6 0 -8 4 -4 9 6 11 -33 26 -43 16 -4 -3 0 -10 8 -15 12
-8 10 -10 -9 -10 -14 0 -34 -9 -46 -20 -18 -17 -25 -18 -48 -7 -20 9 -27 19
-27 40 0 16 -5 27 -14 27 -14 0 -29 37 -20 52 10 15 21 8 20 -14 -1 -34 27
-32 47 3 24 43 22 52 -13 44 -23 -5 -30 -3 -30 9 0 9 4 16 9 16 15 0 24 41 12
53 -8 8 -11 5 -11 -10 0 -11 -13 -34 -29 -51 -17 -17 -40 -50 -52 -74 -12 -24
-23 -45 -25 -47 -2 -2 -36 -5 -75 -6 -54 -2 -75 -6 -84 -18 -7 -10 -27 -20
-46 -23 -19 -4 -46 -18 -61 -32 l-28 -26 0 40 c-1 63 -19 126 -49 169 -15 22
-31 54 -35 70 -4 17 -20 47 -37 67 -16 20 -29 41 -29 47 0 10 -50 26 -174 55
-83 19 -94 28 -137 109 -46 88 -72 101 -83 42 -5 -26 -1 -48 18 -87 14 -29 28
-81 32 -115 l7 -63 -67 0 c-36 0 -66 -4 -66 -10 0 -12 78 -33 96 -26 21 8 28
3 31 -19 2 -11 10 -25 18 -31 8 -6 15 -19 15 -28 0 -13 5 -16 21 -11 16 5 20
3 17 -6 -3 -8 -11 -14 -19 -14 -25 -1 -36 -14 -42 -47 -3 -18 -8 -41 -12 -50
-5 -13 -2 -18 10 -18 11 0 15 -5 11 -15 -3 -9 0 -24 6 -35 11 -18 7 -50 -17
-126 -4 -13 -1 -27 9 -37 22 -21 21 -51 0 -43 -22 9 -44 -11 -44 -40 0 -13 -4
-24 -10 -24 -5 0 -10 -13 -10 -30 0 -16 -4 -30 -10 -30 -5 0 -10 -5 -10 -10 0
-6 3 -10 8 -9 4 1 17 -2 30 -6 16 -5 22 -15 22 -37 0 -17 -4 -27 -10 -23 -9 6
-5 -16 8 -40 13 -21 11 -64 -3 -75 -8 -7 -15 -18 -15 -25 0 -7 -7 -15 -15 -19
-8 -3 -15 -16 -15 -28 l1 -23 18 22 c33 39 41 29 34 -44 -3 -38 -6 -74 -6 -81
0 -9 -5 -8 -17 3 -15 13 -20 13 -48 -1 -18 -8 -32 -22 -32 -30 0 -17 -36 -19
-44 -1 -5 9 -7 9 -12 -1 -3 -6 -10 -10 -15 -6 -5 3 -9 0 -9 -5 0 -6 5 -11 10
-11 6 0 10 -16 10 -35 0 -19 5 -35 10 -35 6 0 10 6 10 13 0 6 6 3 12 -8 15
-27 28 -35 61 -35 22 0 27 -4 27 -25 0 -23 -3 -25 -37 -23 -21 1 -41 7 -45 12
-4 6 -10 7 -14 3 -4 -4 2 -21 15 -37 12 -17 17 -30 11 -30 -5 0 -10 -9 -10
-21 0 -15 -5 -19 -16 -15 -12 5 -14 1 -8 -17 4 -12 12 -25 18 -29 7 -5 4 -8
-8 -8 -11 0 -16 -5 -13 -14 3 -7 -3 -20 -14 -29 -10 -9 -19 -28 -19 -42 0 -34
-17 -23 -25 15 -4 17 -13 30 -20 30 -20 0 -28 -18 -11 -27 16 -10 26 -81 11
-87 -5 -2 0 -5 13 -5 13 -1 21 3 18 8 -3 5 1 11 9 15 21 8 14 -15 -11 -36 -15
-12 -20 -25 -17 -43 4 -20 1 -25 -14 -25 -21 0 -63 -39 -63 -58 0 -7 5 -12 11
-12 5 0 7 5 3 12 -5 8 -2 9 11 4 11 -4 22 -2 26 6 5 7 6 -5 2 -27 -7 -41 -26
-70 -41 -61 -9 5 -7 -36 4 -73 5 -17 4 -22 -4 -17 -7 4 -12 2 -12 -3 0 -6 -8
-12 -17 -13 -10 -1 7 -4 37 -7 43 -5 56 -10 58 -25 2 -10 -2 -23 -10 -28 -8
-5 -2 -6 17 -2 l30 7 -34 -31 c-30 -27 -33 -34 -24 -54 13 -30 6 -48 -18 -48
-13 0 -19 -7 -19 -24 0 -22 -4 -24 -37 -21 -29 2 -44 -3 -60 -20 -22 -22 -22
-22 -3 -42 16 -18 17 -22 4 -27 -22 -9 -24 -8 -24 10 0 8 -5 12 -11 8 -8 -4
-9 1 -4 17 7 21 6 22 -9 10 -15 -13 -15 -15 1 -34 10 -11 12 -17 6 -13 -7 4
-13 2 -13 -3 0 -6 6 -11 13 -11 7 -1 4 -6 -7 -15 -18 -13 -15 -35 5 -35 6 0 7
5 4 10 -11 17 27 11 40 -7 11 -15 15 -15 29 -4 20 17 46 -1 46 -30 0 -23 13
-24 31 -3 7 9 24 20 37 25 13 5 20 13 17 19 -3 5 -3 26 1 45 6 32 10 36 33 33
20 -2 25 -8 23 -23 -2 -11 -4 -43 -6 -72 -2 -60 -9 -71 -31 -53 -23 19 -78 22
-71 4 9 -24 -27 -83 -56 -93 -16 -6 -28 -6 -28 -1 0 4 6 10 13 13 6 2 -3 6
-20 9 -24 3 -30 1 -23 -7 6 -7 6 -15 -1 -22 -16 -16 -39 -5 -32 14 5 12 0 14
-24 9 -50 -11 -54 33 -5 48 l22 7 -22 19 c-16 12 -27 15 -35 8 -6 -5 -27 -10
-46 -11 -23 -1 -33 -6 -30 -14 3 -7 11 -13 18 -13 8 0 17 -9 20 -20 3 -11 16
-25 28 -31 12 -7 25 -18 30 -25 4 -7 15 -10 25 -7 14 5 15 3 5 -8 -7 -7 -13
-21 -13 -31 0 -21 -16 -24 -23 -5 -4 9 -8 8 -16 -3 -15 -22 -13 -40 4 -40 34
0 12 -17 -24 -18 -46 -2 -61 13 -56 53 6 45 -23 125 -44 125 -16 0 -18 15 -18
175 0 96 3 175 7 175 5 0 8 12 7 28 -2 51 3 97 13 112 8 12 11 12 28 -3 18
-16 42 -23 42 -12 0 22 -32 75 -46 75 -11 0 -14 5 -10 16 24 63 25 245 2 319
-9 28 -16 55 -16 60 0 6 20 11 45 12 41 2 61 -10 33 -19 -17 -6 0 -28 23 -28
14 0 19 -7 20 -27 0 -26 1 -27 9 -6 7 16 14 20 31 16 18 -5 21 -3 16 11 -5 13
-1 19 14 23 16 5 20 12 17 34 -4 23 -1 29 14 29 10 0 21 7 24 15 4 8 12 15 20
15 8 0 13 6 12 13 -2 7 9 13 25 15 15 2 27 -2 27 -8 0 -6 -7 -10 -16 -8 -10 2
-18 -5 -19 -14 -2 -10 3 -18 11 -18 9 0 12 -5 9 -10 -3 -6 -3 -19 0 -31 5 -16
10 -18 21 -8 8 6 14 18 14 25 0 17 8 17 41 1 24 -13 25 -13 21 15 -5 30 -12
34 -29 17 -17 -17 -33 -1 -33 33 0 23 -4 29 -15 24 -23 -8 -45 4 -45 26 0 10
-4 17 -9 14 -5 -3 -7 -15 -4 -26 3 -11 0 -20 -6 -20 -6 0 -13 0 -16 0 -3 0 -5
2 -5 5 1 11 -31 37 -37 31 -9 -9 -35 33 -28 45 4 6 -2 5 -13 -2 -17 -10 -23
-10 -36 0 -14 12 -16 10 -16 -13 0 -14 4 -26 10 -26 11 0 -11 -39 -48 -85 -12
-15 -25 -25 -29 -22 -3 4 -12 -1 -19 -11 -12 -16 -14 -15 -37 6 -43 40 -50 70
-34 143 8 35 17 71 21 79 8 20 -43 79 -63 72 -9 -3 -11 1 -6 17 5 16 2 21 -13
21 -11 0 -25 -7 -33 -16 -9 -11 -26 -14 -61 -11 -26 2 -48 0 -48 -5 0 -4 -11
-3 -24 2 -13 5 -27 6 -30 3 -9 -9 14 -33 31 -33 10 0 14 -7 10 -19 -4 -16 2
-21 32 -28 34 -8 36 -12 37 -48 3 -60 -6 -95 -22 -95 -11 0 -13 -6 -9 -19 9
-31 -10 -33 -49 -6 -35 23 -39 24 -71 10 -19 -7 -35 -19 -35 -24 0 -19 -22
-12 -27 9 -6 22 -18 26 -28 10 -3 -5 -15 -10 -25 -10 -12 0 -26 -13 -35 -30
-14 -28 -14 -33 0 -52 8 -13 15 -17 15 -10 0 7 4 11 8 8 5 -3 15 6 22 19 7 14
19 25 25 25 20 0 -6 -68 -28 -74 -10 -2 -21 -14 -24 -25 -6 -22 -33 -37 -33
-18 0 22 -62 18 -97 -6 -18 -12 -33 -27 -33 -34 0 -6 -5 -13 -11 -15 -5 -2
-13 -23 -16 -47 -6 -41 -5 -44 15 -39 14 4 22 2 22 -7 0 -7 6 -16 13 -19 9 -5
9 -7 0 -12 -19 -9 -4 -85 20 -107 12 -10 27 -15 34 -13 8 3 13 -2 13 -14 0
-13 7 -20 20 -20 41 0 33 -29 -19 -76 -35 -32 -50 -52 -46 -63 7 -22 -38 -64
-53 -49 -13 13 -47 -5 -68 -37 -9 -14 -21 -21 -30 -18 -9 3 -18 -5 -25 -26 -6
-17 -15 -28 -20 -25 -5 3 -7 10 -3 15 3 5 2 9 -3 8 -4 -1 -15 0 -23 4 -33 12
-129 15 -134 4 -2 -7 -5 -4 -5 6 -1 20 -26 22 -61 2 -22 -12 -23 -14 -7 -20 9
-4 17 -11 17 -17 0 -5 -4 -6 -10 -3 -5 3 -10 1 -10 -4 0 -6 6 -11 14 -11 30 0
37 -26 28 -109 -4 -45 -5 -86 -2 -92 9 -13 58 -1 68 16 9 16 72 30 72 16 0
-24 -52 -86 -70 -83 -29 5 -50 -38 -54 -109 -2 -35 -4 -71 -5 -78 -1 -12 -4
-12 -13 -3 -7 7 -29 12 -49 12 -31 0 -36 3 -32 19 4 15 -1 18 -33 16 -21 -2
-40 -8 -42 -15 -3 -9 1 -11 12 -7 12 5 16 1 16 -14 0 -12 8 -23 18 -26 14 -3
17 -12 14 -39 -2 -19 1 -41 9 -50 11 -14 10 -19 -11 -37 -16 -13 -21 -21 -12
-24 24 -9 12 -33 -17 -33 -20 0 -30 -6 -34 -20 -3 -12 -14 -20 -25 -20 -12 0
-24 -5 -27 -11 -5 -6 -11 -5 -19 6 -9 13 -17 14 -44 4 -31 -11 -33 -14 -30
-53 6 -59 20 -79 57 -79 23 0 31 -5 31 -19 0 -10 4 -18 9 -18 15 0 71 -54 71
-68 0 -10 4 -10 16 2 20 21 24 20 24 -4 0 -12 -10 -25 -25 -32 -19 -9 -25 -19
-25 -44 0 -34 18 -84 33 -95 5 -4 5 -15 -2 -25 -8 -15 -10 -16 -11 -3 0 9 -11
21 -25 27 -20 9 -23 9 -18 -3 8 -23 -33 -18 -56 7 -18 18 -22 19 -37 7 -13
-11 -18 -11 -21 -1 -3 6 -12 12 -22 12 -9 0 -27 9 -39 20 -18 17 -22 18 -22 5
0 -18 -45 -21 -56 -4 -4 7 -25 9 -60 4 -50 -6 -55 -5 -62 16 -6 15 -11 18 -16
11 -10 -17 -29 -15 -23 3 7 18 -9 29 -43 29 -18 1 -24 6 -22 18 2 13 -4 16
-24 15 -27 -2 -28 -1 -25 51 1 29 -2 52 -7 52 -6 0 -8 8 -5 19 3 13 11 17 24
14 18 -5 28 -33 12 -33 -5 0 -9 -14 -9 -32 -1 -27 0 -29 11 -15 7 9 17 17 24
17 6 0 11 11 11 24 0 16 7 27 20 31 11 3 20 11 20 16 0 5 6 9 14 9 7 0 19 7
26 15 10 12 9 15 -8 15 -11 0 -26 -10 -34 -22 -15 -22 -15 -22 -44 -4 -16 11
-37 27 -47 38 -16 17 -17 20 -3 34 18 17 21 34 6 34 -5 0 -12 11 -16 26 -4 16
-12 24 -23 22 -20 -4 -28 -38 -8 -38 10 0 13 -7 10 -20 -8 -29 -33 -21 -53 18
-11 21 -20 28 -23 20 -4 -10 -10 -8 -21 6 -27 33 -30 9 -6 -54 22 -60 23 -60
56 -54 46 8 56 -17 21 -50 -16 -15 -28 -20 -30 -13 -3 7 -3 0 -1 -15 2 -15 -3
-32 -12 -39 -12 -9 -15 -24 -11 -51 6 -45 -6 -49 -30 -10 -32 48 -49 62 -104
81 -42 15 -54 24 -54 41 0 12 -12 30 -25 41 -14 10 -20 19 -15 20 6 1 15 3 20
4 6 0 28 7 49 14 36 13 41 12 55 -5 9 -11 33 -27 53 -36 l37 -17 -12 26 c-7
15 -22 37 -34 50 -13 12 -23 28 -23 36 0 8 -8 24 -19 36 -18 21 -19 21 -24 1
-7 -29 -25 -25 -33 8 -4 15 -11 32 -16 39 -12 14 -38 6 -38 -12 0 -21 -20 -29
-35 -14 -28 29 -17 89 15 89 25 0 35 18 20 36 -10 11 -16 12 -27 3 -16 -14
-24 -7 -41 34 -11 26 -11 28 8 22 29 -9 26 24 -6 58 -19 21 -29 26 -37 18 -8
-8 -8 -14 1 -23 19 -19 14 -31 -23 -55 -34 -23 -34 -23 -45 -3 -6 11 -15 18
-20 15 -11 -7 -24 40 -15 54 3 6 1 11 -4 11 -6 0 -11 9 -11 19 0 11 -5 23 -11
27 -8 4 -9 0 -4 -15 8 -26 1 -27 -22 -2 -10 11 -29 21 -43 23 -33 4 -39 35 -8
47 13 6 17 10 9 10 -8 1 -11 7 -7 16 4 13 2 14 -14 5 -41 -22 -15 -114 39
-142 46 -23 56 -38 43 -59 -9 -14 -9 -19 -1 -19 7 0 9 -10 5 -25 -6 -25 3 -31
42 -26 6 1 12 -3 12 -9 0 -5 -12 -10 -26 -10 -31 0 -28 -22 5 -30 31 -7 31
-24 -1 -28 -18 -2 -28 2 -32 15 -3 10 -16 23 -28 28 -18 8 -22 17 -20 43 2 31
-10 43 -23 21 -13 -19 16 -95 49 -131 26 -29 30 -39 23 -56 -14 -30 -19 -28
-52 17 -16 21 -35 36 -42 34 -8 -3 -11 0 -8 9 6 16 -53 81 -66 72 -13 -8 -11
-18 9 -40 39 -43 81 -101 101 -142 l22 -43 -23 -19 c-18 -15 -21 -21 -10 -31
6 -7 12 -17 12 -21 0 -16 -22 -7 -47 19 -18 19 -24 22 -20 10 6 -15 3 -17 -13
-12 -14 5 -20 2 -20 -9 0 -9 4 -16 10 -16 5 0 7 -6 4 -13 -3 -8 10 -24 30 -38
20 -13 36 -27 36 -31 0 -5 7 -8 15 -8 8 0 15 -5 15 -12 0 -6 7 -19 15 -28 8
-9 21 -34 28 -55 14 -40 45 -66 33 -27 -10 30 6 34 55 15 91 -34 115 -65 88
-114 -7 -14 -17 -18 -32 -15 -12 3 -16 3 -9 0 25 -12 11 -22 -20 -14 -17 5
-42 7 -56 3 -17 -4 -23 -2 -18 6 4 6 1 11 -9 11 -9 0 -14 4 -11 9 3 5 -1 12
-9 15 -9 3 -20 17 -25 31 -5 14 -17 25 -28 25 -10 0 -23 5 -30 12 -20 20 -27
-2 -8 -30 9 -15 29 -53 43 -84 15 -32 30 -58 34 -58 5 0 6 -7 3 -15 -4 -10 0
-15 15 -15 11 0 25 -9 31 -20 6 -11 20 -20 31 -20 16 0 19 -5 14 -19 -3 -11
-1 -28 4 -38 6 -10 17 -44 25 -76 14 -58 14 -58 -10 -69 -26 -12 -31 -24 -12
-31 9 -3 6 -10 -8 -23 -33 -29 -34 -66 -4 -81 14 -6 43 -28 65 -48 45 -42 77
-60 122 -68 20 -4 33 -2 36 6 3 9 9 8 23 -4 35 -30 87 -49 131 -49 24 0 51 -4
61 -9 9 -6 49 -19 89 -31 39 -11 79 -28 88 -36 12 -12 33 -16 78 -15 34 1 73
1 87 1 14 0 39 1 55 1 17 1 37 0 45 -1 72 -11 244 -7 287 7 26 8 90 19 142 24
59 5 107 15 131 28 33 17 40 18 50 6 8 -10 17 -11 31 -5 10 6 28 14 39 20 11
5 26 10 34 10 7 0 34 12 60 26 26 15 55 24 67 21 12 -3 23 1 29 13 5 10 42 30
82 45 40 15 83 38 95 50 12 13 36 26 53 30 17 4 34 13 36 20 3 8 23 16 45 20
21 4 42 13 46 20 5 7 27 22 51 34 23 12 42 28 42 35 0 15 45 30 60 21 19 -12
60 8 78 37 12 19 22 26 26 19 9 -14 36 -15 36 -1 0 6 -7 10 -16 10 -12 0 -15
9 -13 38 1 20 -1 44 -5 52 -3 8 -5 44 -3 80 2 36 -1 72 -6 81 -12 19 -2 53 13
44 5 -3 10 -17 10 -31 0 -20 5 -24 28 -24 42 0 76 -43 69 -86 -3 -19 -2 -34 3
-34 4 0 11 -12 15 -27 7 -28 7 -28 16 -5 10 25 29 30 29 6 0 -10 6 -14 14 -11
21 8 35 -14 29 -47 -4 -17 -14 -31 -26 -34 -18 -5 -19 -6 -3 -17 12 -9 15 -20
10 -39 -3 -14 -10 -26 -14 -26 -4 0 -10 -25 -13 -56 -6 -58 -20 -86 -41 -78
-12 5 -36 -48 -36 -82 0 -11 -10 -24 -22 -29 -13 -6 -24 -20 -26 -33 -2 -12
-7 -20 -11 -18 -4 3 -12 -4 -19 -15 -10 -16 -10 -21 3 -25 33 -13 15 -33 -35
-40 -27 -4 -55 -13 -62 -21 -6 -8 -26 -20 -43 -28 -30 -12 -72 -71 -60 -83 2
-3 7 3 11 12 3 9 12 16 19 16 9 0 10 -10 2 -44 -8 -34 -16 -46 -34 -50 -12 -4
-23 -11 -23 -16 0 -5 -33 -9 -73 -8 -68 0 -74 -1 -106 -31 -18 -17 -37 -31
-42 -31 -4 0 -32 -25 -61 -56 -29 -31 -60 -65 -70 -74 -9 -10 -19 -28 -23 -39
-7 -22 -90 -91 -109 -91 -6 0 -20 -17 -31 -37 -14 -26 -29 -39 -47 -43 -15 -3
-36 -12 -47 -21 -10 -10 -32 -20 -47 -24 -16 -3 -51 -19 -79 -35 -27 -16 -67
-38 -88 -50 -20 -11 -37 -26 -37 -33 0 -20 -33 -34 -83 -35 -45 -1 -48 0 -54
28 -3 17 -10 30 -15 30 -6 0 -8 -7 -5 -15 4 -8 2 -17 -3 -20 -12 -8 -40 5 -40
20 0 41 -70 119 -85 94 -4 -5 -4 -33 0 -61 8 -57 36 -92 66 -83 17 6 23 -2 17
-22 -1 -5 -9 -7 -16 -5 -7 2 -25 -4 -38 -13 -23 -15 -27 -15 -54 5 -17 12 -30
25 -30 30 0 23 -85 13 -119 -14 -8 -6 -40 -11 -72 -11 -49 0 -59 3 -59 18 0
10 -8 17 -20 17 -13 0 -20 -7 -20 -18 0 -15 -11 -18 -72 -20 -78 -3 -141 15
-152 43 -3 9 -10 14 -15 11 -5 -3 -19 13 -31 37 -52 100 -119 167 -168 167
-11 0 -31 9 -45 20 -14 11 -32 20 -40 20 -8 0 -21 7 -28 16 -7 9 -24 20 -38
25 -19 8 -29 5 -47 -12 -22 -20 -24 -46 -3 -34 17 11 49 -6 49 -25 0 -14 -11
-23 -38 -31 -34 -10 -45 -8 -96 15 l-57 26 4 46 c4 36 2 47 -11 51 -19 7 -93
63 -104 78 -18 24 -8 53 21 58 20 4 31 14 35 32 4 15 20 34 36 43 40 23 33 36
-21 42 -39 4 -45 8 -49 33 l-5 28 -19 -23 c-17 -19 -18 -28 -9 -72 13 -61 3
-84 -37 -93 -25 -5 -29 -9 -24 -28 7 -28 -11 -65 -32 -65 -23 0 -110 94 -130
140 -10 22 -21 40 -25 40 -3 0 -28 20 -53 45 -44 41 -52 45 -99 45 -49 1 -54
3 -83 43 -17 23 -46 70 -63 104 -18 33 -54 81 -79 106 -26 25 -52 51 -58 59
-16 20 -34 78 -34 109 0 29 1 29 60 29 59 0 60 1 60 28 0 15 -7 36 -16 47 -12
16 -13 37 -8 100 6 78 5 82 -21 113 -27 32 -27 35 -15 75 15 48 37 77 57 77
11 0 14 -16 12 -74 -2 -67 0 -76 24 -102 15 -16 27 -32 27 -36 0 -4 24 -25 53
-46 28 -21 59 -52 67 -68 8 -16 34 -51 58 -77 43 -47 44 -49 37 -98 -7 -48 -6
-49 18 -49 14 0 28 -4 32 -9 3 -5 21 -7 39 -4 23 4 44 -1 65 -13 26 -16 35
-17 52 -6 11 7 28 10 37 7 24 -8 62 -71 62 -102 0 -20 21 -46 80 -104 80 -78
103 -88 113 -48 4 15 11 18 30 14 14 -4 28 -2 32 5 14 23 -41 120 -69 120 -6
0 -25 15 -43 33 -17 17 -38 38 -45 45 -45 46 -57 60 -71 89 -9 17 -18 45 -19
63 -1 17 -6 34 -10 36 -5 3 -6 9 -4 13 3 4 -8 21 -24 36 -26 25 -32 27 -58 16
-26 -11 -36 -8 -97 23 -89 46 -169 134 -160 176 4 19 -1 41 -14 66 -26 48 -26
60 -1 112 11 22 20 47 20 55 0 8 6 20 13 26 8 6 19 28 25 49 8 27 19 40 42 49
16 6 30 8 30 3 0 -4 17 -4 37 1 21 4 70 4 112 -2 46 -5 79 -5 84 0 6 6 -1 39
-17 85 -14 42 -26 87 -26 100 0 28 -19 86 -29 86 -4 0 -13 17 -20 38 -8 20
-17 39 -21 42 -12 9 -70 98 -79 123 -5 14 -37 72 -70 130 -34 58 -61 108 -61
111 0 4 -13 20 -30 37 -16 17 -63 82 -104 143 -41 61 -87 123 -103 137 -61 58
-170 139 -219 164 -50 25 -64 44 -64 88 0 9 11 23 25 29 16 7 25 19 25 34 0
21 -4 23 -29 18 -16 -3 -31 -2 -35 4 -8 14 -56 2 -56 -14 0 -7 -8 -18 -17 -23
-10 -6 -13 -11 -8 -11 6 0 3 -5 -5 -11 -12 -8 -10 -9 8 -4 13 4 22 2 22 -4 0
-6 -5 -11 -10 -11 -19 0 -51 -37 -45 -52 7 -16 -21 -45 -33 -34 -4 4 -7 33 -7
64 l0 57 -55 -1 c-30 0 -74 -5 -97 -11 -30 -8 -41 -8 -36 0 4 7 0 8 -11 4 -10
-4 -19 -7 -20 -7 -2 0 -1 -10 1 -23 4 -20 -1 -24 -39 -32 -32 -8 -46 -17 -56
-37 -16 -35 -23 -35 -64 1 -33 29 -68 34 -109 17 -9 -4 -32 -8 -52 -9 -22 -1
-33 -6 -30 -14 3 -7 1 -18 -3 -24 -5 -9 -9 -8 -14 5 -5 16 -7 16 -24 -3 -19
-21 -19 -21 2 -21 13 0 22 -6 22 -15 0 -19 -36 -20 -47 0 -5 8 -22 17 -38 21
-24 4 -36 0 -60 -24 -36 -35 -67 -52 -94 -52 -16 0 -21 -6 -21 -25 0 -13 -10
-34 -22 -46 -34 -31 -145 -81 -194 -87 -28 -3 -44 -10 -44 -18 0 -8 -4 -14 -9
-14 -5 0 -8 7 -7 16 1 22 -76 46 -130 41 -32 -3 -46 0 -58 14 -10 12 -12 21
-5 25 23 14 -15 22 -45 11 -45 -18 -68 -11 -119 36 -64 60 -69 73 -61 167 5
54 3 80 -4 80 -6 0 -19 15 -30 33 -16 26 -18 44 -14 95 4 59 3 65 -24 93 -22
23 -28 37 -25 65 1 19 -3 42 -10 51 -9 10 -15 59 -19 138 -3 67 -10 128 -16
136 -6 8 -24 61 -38 119 -15 58 -38 128 -52 157 -28 61 -29 72 -9 189 12 68
24 103 52 148 38 63 40 73 28 181 -6 54 -4 68 24 129 16 37 44 84 60 105 29
36 76 131 66 131 -3 0 8 26 25 57 18 34 28 64 24 75 -7 24 52 88 82 88 28 0
44 20 51 64 3 20 10 39 14 42 5 3 9 23 9 45 0 56 23 105 59 124 17 8 43 33 57
55 15 22 31 40 36 40 12 0 29 49 21 63 -4 6 -9 2 -14 -10 -6 -17 -19 -22 -86
-27 -98 -9 -113 -13 -113 -33 0 -19 -78 -93 -98 -93 -5 0 -9 -7 -9 -15 0 -8 5
-15 11 -15 6 0 4 -5 -4 -10 -10 -6 -11 -10 -2 -10 6 0 11 -3 11 -7 -5 -30 3
-34 21 -13 20 23 20 23 20 2 0 -11 4 -23 10 -27 5 -3 6 -15 1 -28 -4 -12 -6
-34 -4 -48 2 -16 -3 -32 -13 -40 -16 -13 -17 -11 -10 13 5 24 4 27 -14 25 -11
-2 -23 -7 -27 -12 -5 -4 -3 -5 4 -1 6 3 14 3 17 -2 3 -5 -16 -9 -41 -11 -32
-1 -51 3 -66 16 -19 17 -20 17 -14 1 4 -10 3 -18 -2 -18 -5 0 -12 -12 -16 -27
-7 -26 -8 -26 -15 -8 -6 14 -9 16 -10 5 -1 -8 -3 -22 -4 -30 -2 -8 -3 -30 -4
-48 -2 -29 -5 -32 -23 -27 -23 8 -46 -12 -66 -58 -17 -38 -34 -42 -114 -27
-53 10 -72 11 -81 2 -7 -7 -22 -12 -35 -12 -39 0 -61 -84 -27 -103 25 -14 15
-36 -28 -64 -67 -43 -89 -53 -114 -53 -13 0 -24 -4 -24 -10 0 -5 -11 -12 -24
-16 -13 -3 -41 -23 -62 -45 -21 -21 -44 -39 -51 -39 -7 0 -13 -4 -13 -9 0 -5
-24 -18 -52 -31 -29 -12 -91 -41 -138 -65 -123 -62 -124 -62 -150 -21 -17 28
-19 39 -10 56 7 13 7 20 0 20 -5 0 -10 7 -10 15 0 26 -48 30 -92 6 -22 -11
-55 -21 -74 -21 -24 0 -38 -6 -49 -24 -24 -37 -3 -98 41 -122 109 -59 45 -159
-173 -269 l-53 -26 0 -2107 1 -2107 77 -51 c102 -68 300 -197 334 -218 31 -18
37 -36 13 -36 -8 0 -15 -4 -15 -8 0 -9 55 -52 65 -52 4 0 22 -12 41 -26 41
-31 98 -64 174 -100 85 -39 114 -56 123 -71 4 -7 16 -13 26 -13 10 0 24 -7 31
-15 7 -8 16 -15 21 -15 5 0 37 -13 71 -30 34 -16 71 -30 82 -30 12 0 34 -13
49 -30 30 -32 106 -70 141 -70 11 0 30 -7 40 -15 11 -8 26 -15 34 -15 7 0 26
-12 41 -28 15 -15 59 -38 97 -51 38 -13 87 -32 108 -43 22 -10 46 -18 53 -18
7 0 13 -4 13 -9 0 -12 75 -47 120 -56 19 -4 39 -10 45 -13 5 -3 18 -7 29 -8
11 0 22 -6 24 -12 2 -7 12 -12 23 -12 10 0 19 -4 19 -8 0 -4 21 -13 48 -21 75
-20 165 -51 195 -67 15 -9 27 -12 27 -7 0 4 4 2 9 -6 5 -8 22 -15 38 -17 65
-6 97 -14 113 -29 9 -8 22 -15 29 -15 6 0 14 -6 17 -14 3 -8 13 -15 22 -15 33
0 117 -23 133 -37 9 -8 18 -12 21 -9 8 9 98 -33 98 -45 0 -6 5 -8 10 -5 6 4
18 1 26 -6 8 -6 17 -9 21 -5 3 3 18 -1 31 -10 18 -12 37 -15 68 -10 39 5 44 3
44 -14 0 -13 7 -20 19 -20 11 0 27 -10 35 -21 10 -15 27 -22 56 -24 22 -2 47
-9 55 -15 8 -6 18 -9 24 -6 9 6 31 -1 86 -25 11 -5 34 -10 50 -11 17 -1 39 -8
50 -15 11 -7 27 -13 37 -13 22 0 142 -37 183 -56 26 -12 163 -45 248 -59 15
-3 52 -12 81 -20 49 -14 169 -34 338 -55 37 -5 76 -14 88 -20 11 -6 25 -8 30
-5 5 3 28 0 52 -6 24 -6 70 -16 103 -23 46 -9 63 -18 71 -35 11 -22 12 -22 22
-5 10 18 12 18 28 2 16 -16 18 -16 30 0 11 15 14 14 25 -13 12 -28 13 -29 16
-7 5 26 18 29 31 6 6 -11 11 -13 16 -5 12 19 26 12 38 -16 11 -27 12 -28 16
-5 5 30 34 25 43 -8 l7 -25 7 23 c10 31 22 28 39 -10 l14 -33 1 28 c1 15 4 27
9 27 9 0 35 -40 38 -58 1 -8 6 -17 10 -20 4 -4 4 10 1 30 -7 44 5 49 29 12 13
-19 19 -22 26 -12 6 10 13 8 27 -9 22 -27 31 -29 31 -8 0 8 7 15 15 15 8 0 12
-6 9 -14 -3 -8 0 -17 5 -21 6 -3 9 -11 6 -16 -4 -5 -1 -17 4 -26 6 -10 11 -12
11 -5 0 6 9 12 21 12 14 0 19 -5 16 -15 -4 -8 -2 -17 4 -20 5 -4 12 1 16 11 6
15 7 15 14 -3 6 -16 14 -19 33 -16 32 7 36 13 38 58 1 40 12 46 23 13 l8 -23
4 23 c4 20 9 23 31 17 15 -3 39 -15 54 -25 33 -24 48 -25 48 -5 0 18 7 19 25
3 51 -46 88 -68 112 -68 13 0 23 -4 23 -10 0 -5 16 -10 35 -10 30 0 35 3 35
24 0 16 -7 27 -20 31 -11 4 -18 11 -14 16 3 6 13 7 23 3 9 -4 32 -7 51 -8 27
-1 35 -5 34 -19 -2 -21 12 -23 20 -2 3 8 10 15 16 15 14 0 13 -37 -2 -42 -6
-2 -8 -10 -4 -16 5 -9 13 -5 28 13 24 30 35 32 43 4 7 -19 7 -20 21 -2 12 15
15 16 23 3 8 -12 11 -12 17 4 7 17 8 17 25 -5 l19 -24 0 23 c0 28 17 29 26 0
l7 -22 18 22 18 23 3 -27 c4 -37 24 -41 32 -8 l7 27 15 -22 c13 -18 18 -20 31
-9 12 10 18 8 33 -12 16 -21 20 -22 35 -10 13 11 18 11 24 1 6 -8 15 -9 33 -2
23 9 25 7 21 -10 -7 -24 2 -24 27 1 23 23 40 19 40 -11 0 -16 3 -17 19 -8 26
17 52 4 48 -23 -2 -13 -2 -18 0 -11 3 9 10 9 28 1 14 -6 21 -16 18 -21 -4 -6
14 1 39 15 47 26 89 24 50 -3 -20 -14 -20 -15 -1 -38 14 -18 19 -19 19 -7 0
20 14 21 30 1 7 -9 15 -13 18 -11 8 8 -25 36 -43 36 -15 0 -15 2 -1 15 19 19
36 19 36 0 0 -8 7 -15 15 -15 8 0 15 5 15 12 0 6 8 4 19 -6 18 -16 20 -16 29
0 5 9 15 14 23 12 8 -3 19 2 25 10 13 18 44 9 44 -13 0 -8 -9 -15 -20 -15 -11
0 -20 -6 -20 -14 0 -9 7 -12 20 -9 14 4 20 0 20 -11 0 -10 5 -14 10 -11 8 5 7
11 -1 21 -9 11 -6 18 12 33 25 20 39 19 39 -5 0 -18 10 -17 34 1 23 17 40 20
31 5 -9 -15 41 -12 57 3 15 15 42 11 32 -5 -4 -6 1 -8 15 -3 15 5 21 2 21 -9
0 -21 19 -20 42 1 17 15 19 15 32 -2 13 -18 14 -18 23 0 6 10 15 15 22 11 17
-11 13 -23 -11 -30 -22 -6 -22 -7 -4 -17 15 -9 21 -8 28 5 5 9 17 16 28 16 10
0 20 4 22 10 2 5 20 -6 42 -26 l38 -35 -7 28 -7 28 21 -24 c25 -29 26 -40 5
-48 -10 -4 -22 1 -29 10 -16 22 -25 21 -25 -2 0 -23 -30 -37 -42 -19 -6 10
-12 9 -23 -6 -8 -11 -18 -16 -22 -13 -4 4 -1 13 5 19 16 16 15 28 -2 28 -8 0
-18 -9 -21 -21 -5 -16 -9 -18 -21 -8 -12 10 -20 7 -42 -14 -15 -14 -38 -27
-52 -30 -14 -2 292 -5 680 -6 631 -1 702 1 676 14 -15 8 -35 15 -43 15 -10 0
-13 6 -9 16 3 9 6 20 6 26 0 6 9 8 20 5 11 -3 23 -1 26 5 3 5 18 7 31 3 22 -5
25 -3 20 14 -3 12 -1 21 5 21 5 0 12 -9 15 -20 5 -18 13 -20 72 -19 36 1 69 6
73 12 4 6 13 4 24 -7 9 -10 20 -14 23 -9 8 10 81 11 81 0 0 -5 5 -5 10 -2 6 3
10 1 10 -4 0 -6 5 -11 10 -11 6 0 10 9 10 20 0 16 6 19 38 16 20 -2 45 -4 55
-5 28 -2 21 -31 -8 -31 -14 0 -25 -4 -25 -10 0 -5 -7 -10 -15 -10 -8 0 -24 -9
-35 -20 l-20 -20 2010 0 c1601 0 2010 3 2010 13 0 8 4 7 10 -3 9 -13 10 -13
10 0 0 11 2 12 8 3 9 -14 242 -18 242 -4 0 5 11 6 25 3 19 -3 27 1 34 22 10
24 11 25 43 12 18 -8 34 -21 36 -30 3 -13 20 -16 102 -16 70 0 100 4 103 13 3
9 8 9 18 1 8 -6 24 -11 37 -12 19 -1 21 2 11 20 -9 16 -7 24 11 40 20 18 23
19 39 4 16 -15 19 -15 31 -1 8 10 9 15 1 15 -21 0 -11 43 19 77 17 18 30 38
30 43 0 13 32 50 43 50 4 0 3 -8 -2 -19 -8 -14 -5 -23 14 -40 32 -27 45 -27
45 0 0 15 5 19 15 15 8 -3 44 -8 79 -12 l64 -7 7 56 c4 30 4 64 1 75 -6 18 0
22 51 33 32 7 68 12 81 12 15 -1 22 5 22 18 0 10 7 19 15 19 8 0 15 6 15 14 0
7 6 19 14 25 11 10 16 6 24 -16 7 -17 11 -21 11 -10 1 12 10 17 34 17 24 0 28
3 17 10 -16 10 -9 12 77 14 39 1 42 2 37 23 -6 23 9 32 21 13 3 -6 22 -10 41
-10 19 0 33 -3 33 -7 -3 -20 2 -24 15 -14 9 8 21 8 39 2 22 -9 26 -7 32 17 9
36 23 52 46 52 24 0 89 -31 89 -42 0 -5 4 -6 10 -3 5 3 10 15 10 26 0 23 17
25 42 2 17 -15 18 -15 18 0 0 12 9 17 28 17 137 3 194 8 204 18 9 9 2 12 -32
14 l-45 1 40 4 c22 3 43 10 47 16 5 8 8 5 8 -7 0 -18 1 -18 18 -3 10 10 26 17
35 17 9 0 17 7 17 15 0 12 8 14 40 9 32 -5 40 -4 40 9 0 9 -10 17 -22 19 -15
3 -1 9 39 18 50 11 63 18 65 34 2 16 12 22 41 24 20 2 37 7 37 13 0 14 78 11
82 -3 3 -8 13 -5 32 9 22 18 31 20 45 11 13 -8 41 -8 105 0 47 6 93 9 101 6
10 -4 15 0 15 13 0 29 20 43 60 43 30 0 39 -5 49 -27 l13 -28 17 21 17 22 23
-24 c25 -26 51 -32 51 -10 0 7 -12 26 -27 41 l-28 28 34 -6 c18 -4 37 -7 42
-7 5 0 9 -11 9 -25 0 -22 4 -25 35 -25 46 0 88 -19 75 -35 -13 -15 32 -40 56
-31 12 5 15 14 10 36 -5 25 -2 30 14 30 12 0 20 -7 20 -16 0 -10 6 -14 15 -10
9 3 15 0 15 -9 0 -22 37 -18 60 5 20 20 20 33 20 4720 0 4171 -2 4700 -15
4700 -8 0 -15 7 -15 16 0 10 6 14 15 10 13 -5 15 322 15 2904 l0 2910 -8000 0
-8000 0 0 -3501z m7777 -520 c35 -6 63 -15 63 -20 0 -5 -4 -9 -10 -9 -16 0
-12 -46 5 -60 8 -7 21 -10 30 -6 18 6 9 36 -11 36 -8 0 -14 5 -14 10 0 7 6 7
20 0 22 -12 60 2 60 21 0 6 5 7 11 3 6 -3 9 -14 6 -24 -3 -12 0 -16 12 -13 12
3 22 -9 36 -49 22 -60 21 -87 -3 -105 -23 -18 -49 -16 -70 5 -15 15 -36 19
-98 20 -254 4 -464 24 -464 44 0 4 -9 8 -20 8 -20 0 -44 32 -32 45 4 3 1 5 -7
3 -8 -2 -16 4 -18 13 -3 12 6 18 36 23 22 3 46 3 54 0 8 -3 32 -1 52 5 28 7
46 7 69 -3 26 -11 38 -10 81 5 28 9 51 22 51 28 3 24 5 25 19 7 13 -17 14 -17
36 3 27 24 24 24 106 10z m863 -79 c0 -5 7 -7 16 -3 9 3 20 0 24 -7 8 -13 28
-18 88 -19 21 -1 32 -6 32 -16 0 -22 37 -18 50 5 14 26 65 39 131 33 30 -3 65
-6 79 -7 15 0 25 -7 25 -16 0 -10 9 -14 28 -13 15 1 27 -2 27 -8 0 -5 9 -9 20
-9 11 0 20 -6 20 -13 0 -21 40 -52 61 -49 10 2 19 -2 19 -7 0 -6 -5 -11 -10
-11 -6 0 -19 -18 -29 -40 -10 -22 -20 -38 -23 -35 -3 3 -3 -6 -1 -20 4 -20 1
-25 -15 -25 -24 0 -52 -39 -59 -84 -4 -26 -12 -34 -39 -42 -19 -6 -37 -7 -40
-3 -3 5 2 9 10 9 9 0 16 6 16 14 0 7 7 19 15 26 8 7 12 16 9 21 -3 5 2 12 10
15 24 9 19 24 -6 20 -29 -4 -51 18 -43 44 5 17 2 20 -22 21 -17 1 -21 3 -10 6
12 3 17 15 17 39 0 19 -4 34 -10 34 -5 0 -10 -4 -10 -9 0 -5 -13 -14 -30 -21
-17 -7 -30 -20 -30 -30 0 -9 -6 -17 -12 -17 -7 0 -43 -2 -80 -3 -68 -3 -82
-11 -51 -28 11 -7 23 -6 34 1 22 14 39 0 19 -14 -11 -8 -12 -12 -2 -16 19 -7
14 -23 -8 -23 -13 0 -17 -5 -14 -14 5 -14 -26 -39 -43 -34 -4 1 -18 -4 -31
-11 -20 -10 -27 -10 -48 4 -27 17 -29 26 -13 42 9 9 16 9 30 0 14 -9 22 -7 38
7 37 34 22 56 -37 56 -54 0 -74 -11 -68 -36 7 -28 -7 -39 -24 -19 -7 8 -17 12
-22 9 -5 -4 -26 1 -46 9 -21 9 -52 21 -69 29 -18 7 -33 19 -33 27 0 10 -3 11
-14 2 -10 -8 -20 -6 -42 11 -16 13 -31 22 -34 22 -14 -4 -50 17 -60 36 -6 11
-17 20 -25 20 -8 0 -15 5 -15 10 0 6 -11 15 -25 20 -36 14 -23 37 18 32 27 -3
35 1 44 21 13 28 68 43 135 38 22 -1 47 4 60 13 24 17 118 22 118 6z m-1576
-52 c-2 -3 0 -9 6 -13 17 -10 11 -25 -10 -25 -12 0 -20 7 -21 18 0 9 -5 3 -10
-15 -6 -21 -16 -33 -31 -35 -20 -3 -22 -8 -19 -50 1 -27 -1 -48 -6 -48 -9 0
-33 48 -33 67 0 7 -4 13 -10 13 -5 0 -10 -4 -10 -10 0 -5 -11 -10 -25 -10 -19
0 -25 5 -25 21 0 35 32 80 52 73 9 -3 29 1 44 9 27 14 106 19 98 5z m-200
-455 c4 -5 12 -8 18 -8 6 0 16 -8 22 -17 9 -15 2 -26 -41 -66 -29 -27 -55 -62
-59 -77 -10 -39 -32 -80 -44 -81 -5 -1 -14 -2 -19 -3 -5 0 -11 -15 -15 -32
l-6 -31 -29 21 c-16 12 -33 21 -38 21 -5 0 -16 11 -23 25 -12 23 -10 28 32 73
25 27 49 59 53 73 4 13 16 33 26 44 10 11 17 25 16 30 -1 6 18 15 43 22 57 15
55 14 64 6z m5795 -45 c12 -12 24 -36 27 -55 6 -29 2 -38 -35 -74 -45 -45 -48
-54 -26 -83 8 -11 15 -29 15 -41 0 -12 9 -31 20 -43 24 -26 24 -30 4 -71 -15
-30 -17 -31 -38 -18 -11 8 -23 23 -24 33 -5 27 -28 42 -57 36 -16 -3 -33 2
-45 13 -33 29 -26 49 28 87 l24 16 -30 7 c-40 8 -90 -14 -134 -60 -29 -31 -40
-37 -62 -31 -38 9 -37 66 4 115 49 59 82 91 95 91 6 0 26 16 44 35 17 19 39
35 49 35 9 0 26 7 36 15 29 22 82 19 105 -7z m-4425 -157 c3 -5 20 -11 38 -14
85 -15 101 -21 105 -37 6 -22 67 -42 82 -27 12 12 15 -41 5 -81 -6 -20 -11
-22 -38 -16 -17 3 -49 15 -70 25 -22 11 -49 19 -61 19 -24 0 -93 45 -115 74
-8 11 -18 31 -22 43 -6 21 -3 23 32 23 21 0 41 -4 44 -9z m-710 -73 c11 -6 27
-14 35 -18 28 -12 23 -30 -12 -45 -20 -8 -38 -19 -42 -25 -11 -17 -25 -11 -25
11 0 19 -4 20 -67 14 -38 -4 -83 -10 -100 -15 -38 -10 -50 1 -28 24 8 8 14 21
13 28 -2 7 13 21 32 31 28 15 48 17 104 12 38 -4 78 -11 90 -17z m6092 -144
c43 -21 44 -48 3 -73 -40 -25 -69 -68 -69 -105 0 -16 -7 -38 -16 -48 -22 -23
-5 -45 41 -54 42 -8 82 -46 63 -61 -26 -21 -57 -24 -93 -8 -21 8 -46 15 -57
15 -36 0 -64 49 -38 65 6 3 10 26 10 50 0 24 4 46 9 50 5 3 9 19 9 36 -1 22 7
37 30 56 18 14 32 33 32 41 0 14 27 52 38 52 2 0 19 -7 38 -16z m-4561 -144
c55 -25 112 -76 120 -107 5 -20 -2 -38 -27 -74 -18 -27 -36 -49 -40 -49 -14 0
-9 -30 5 -31 6 0 2 -4 -10 -9 -27 -11 -31 -48 -5 -57 9 -4 26 -15 36 -25 20
-18 20 -18 0 -33 -10 -8 -31 -17 -46 -20 -16 -4 -28 -11 -28 -16 0 -5 -10 -9
-22 -9 -12 0 -18 -3 -15 -7 8 -7 -11 -33 -24 -33 -5 0 -9 10 -9 22 0 20 -1 21
-13 4 -12 -16 -14 -16 -26 -2 -8 9 -20 16 -27 16 -13 0 -20 25 -15 60 8 69 14
95 21 100 5 3 -6 18 -26 33 -37 31 -54 28 -54 -7 0 -30 -26 -52 -83 -72 -49
-17 -70 -12 -113 28 -21 19 -22 37 -7 78 4 8 5 19 4 23 0 4 6 10 14 13 9 4 15
19 15 38 1 39 17 61 53 70 19 4 27 3 27 -7 0 -26 41 -52 81 -53 21 0 39 3 39
8 0 5 9 7 19 3 15 -5 24 1 36 24 18 35 19 46 6 46 -5 0 -13 3 -17 8 -4 4 -2 7
4 7 6 0 9 6 6 14 -3 7 3 21 12 30 19 19 43 16 109 -14z m4785 -12 c0 -6 37 -7
93 -2 80 5 98 4 120 -11 32 -21 38 -70 10 -79 -10 -3 -31 -18 -46 -32 -24 -22
-34 -25 -73 -20 -24 3 -48 8 -54 11 -5 3 -14 -4 -20 -15 -16 -30 -99 -28 -137
4 -25 21 -26 26 -15 50 11 26 14 26 75 20 52 -5 65 -3 77 11 12 14 12 18 0 25
-8 5 -18 6 -22 4 -4 -3 -8 0 -8 6 0 8 -10 9 -30 5 -25 -6 -30 -4 -30 13 0 10
2 21 5 24 9 8 55 -3 55 -14z m-8712 -151 c2 -15 -1 -27 -6 -27 -5 0 -12 -18
-16 -40 -3 -22 -11 -40 -16 -40 -6 0 -10 -6 -10 -14 0 -7 -9 -25 -20 -39 -11
-14 -20 -36 -20 -50 0 -24 -35 -57 -62 -57 -7 0 -23 -15 -34 -33 -20 -30 -131
-97 -162 -97 -6 0 -23 -11 -39 -24 -42 -35 -92 -58 -113 -51 -10 3 -21 2 -24
-4 -4 -5 -15 -5 -29 2 -29 13 -28 49 1 80 12 13 22 36 22 50 0 33 27 77 46 77
35 0 115 67 128 107 7 22 131 87 146 78 6 -4 10 -14 10 -24 0 -10 7 -24 15
-31 11 -9 19 -7 40 14 30 30 32 56 5 63 -11 3 -20 9 -20 14 0 13 38 49 53 50
6 1 21 0 33 0 11 -1 27 5 34 14 18 22 34 14 38 -18z m1548 -79 c8 -18 18 -40
24 -48 5 -8 15 -27 22 -41 28 -57 92 -144 140 -191 37 -36 48 -52 40 -60 -28
-28 -132 69 -185 171 -27 53 -67 169 -67 197 0 14 13 -1 26 -28z m8414 6 c0
-9 -10 -19 -22 -22 -23 -6 -23 -6 2 -12 20 -5 26 -13 28 -42 3 -35 2 -37 -35
-44 -21 -4 -53 -7 -70 -7 -22 1 -33 -4 -33 -13 0 -8 -4 -14 -10 -14 -14 0 -13
13 2 28 16 16 9 20 -33 15 -31 -4 -36 -8 -31 -26 5 -18 3 -19 -10 -7 -23 22
-2 65 44 86 20 9 35 20 33 24 -3 4 3 11 13 14 9 3 28 13 42 21 34 20 80 20 80
-1z m-7563 -62 c22 -14 51 -114 58 -199 2 -23 10 -52 18 -63 13 -19 12 -23
-15 -50 -16 -17 -39 -30 -50 -30 -18 0 -20 4 -14 41 5 30 2 44 -9 56 -9 8 -14
22 -11 30 4 9 -6 20 -26 31 -17 9 -49 34 -71 55 -21 20 -45 37 -53 37 -20 0
-29 29 -15 43 9 9 18 8 39 -4 34 -19 52 -14 52 15 0 12 5 27 12 34 13 13 66
16 85 4z m363 -112 c11 -11 25 -20 30 -20 6 0 10 -5 10 -11 0 -10 16 -32 61
-87 8 -9 7 -17 -2 -28 -6 -8 -9 -18 -5 -21 4 -4 11 -2 15 6 5 7 10 12 12 11 2
-1 12 2 22 5 24 10 44 -9 51 -50 7 -37 12 -40 36 -25 9 5 19 5 27 -2 7 -6 13
-7 13 -3 0 4 7 2 16 -5 21 -19 54 11 35 33 -9 12 -7 16 9 20 15 4 20 0 20 -15
0 -20 1 -20 18 -5 27 25 78 21 162 -13 120 -48 121 -49 102 -71 -9 -11 -21
-19 -27 -19 -20 0 -98 -45 -127 -74 -23 -22 -35 -27 -57 -23 -33 7 -77 -23
-68 -47 6 -16 -32 -27 -64 -19 -14 4 -18 12 -14 27 2 11 2 15 -1 9 -5 -12 -34
-19 -34 -8 0 3 9 14 20 25 11 11 20 25 20 30 0 12 -50 13 -69 1 -16 -10 -67 4
-92 25 -9 9 -14 25 -11 42 3 20 -5 37 -27 62 -20 22 -30 43 -28 57 3 14 0 20
-9 16 -21 -8 -52 15 -70 53 -9 19 -20 31 -23 25 -10 -16 -28 75 -19 98 9 27
42 27 68 1z m6720 -240 c0 -15 7 -20 27 -20 21 0 24 -3 15 -12 -14 -14 -16
-48 -3 -48 15 0 20 -39 6 -50 -7 -6 -16 -25 -19 -43 -5 -24 -9 -28 -16 -18 -5
10 -7 0 -3 -27 l6 -42 -66 0 c-65 0 -66 -1 -58 -22 5 -13 12 -23 17 -24 28 -3
44 -18 43 -43 -1 -17 -3 -20 -6 -8 -5 21 -33 23 -33 2 0 -20 -29 -19 -37 0 -3
9 -18 22 -33 30 -22 11 -26 19 -23 40 3 14 12 25 22 25 13 0 14 2 2 9 -12 8
-12 12 2 26 10 9 17 23 17 31 0 8 4 14 9 14 5 0 14 23 21 50 7 31 21 57 36 69
13 10 24 24 24 30 0 6 4 11 9 11 5 0 13 9 16 20 3 11 11 20 16 20 5 0 9 -9 9
-20z m-5812 -142 c3 -60 9 -66 60 -59 8 1 20 -3 29 -10 8 -7 33 -15 56 -18 41
-6 42 -6 49 -56 4 -30 3 -54 -3 -62 -13 -14 -4 -33 16 -33 7 0 15 -10 17 -22
2 -12 15 -29 30 -37 24 -14 28 -14 47 3 12 11 21 16 21 12 0 -3 13 0 30 9 41
21 74 20 65 -2 -42 -98 -55 -177 -31 -186 8 -3 23 1 32 11 40 40 60 42 101 12
47 -35 67 -70 61 -104 -3 -14 -1 -26 3 -26 5 0 9 -4 9 -10 0 -5 -6 -10 -14
-10 -8 0 -12 -8 -9 -23 3 -17 -8 -35 -51 -75 -30 -29 -62 -52 -71 -52 -9 0
-13 5 -10 10 3 6 -2 10 -11 10 -15 0 -15 2 -3 18 8 9 25 40 38 67 13 28 31 58
40 68 13 15 13 20 2 27 -23 14 -43 0 -38 -27 2 -13 0 -26 -4 -29 -5 -3 -9 0
-9 5 0 6 -12 11 -26 11 -18 0 -25 4 -21 14 4 10 0 12 -14 9 -25 -7 -24 -28 2
-54 20 -20 20 -21 2 -34 -10 -8 -26 -15 -35 -15 -10 0 -18 -4 -18 -10 0 -5
-10 -10 -22 -10 -19 0 -20 -2 -8 -10 12 -8 11 -10 -7 -10 -29 0 -30 -24 -3
-43 11 -8 17 -17 12 -22 -4 -4 5 0 21 10 15 9 27 21 27 26 0 14 26 10 40 -6
19 -23 7 -41 -13 -20 -16 16 -18 16 -36 -7 -12 -13 -16 -27 -11 -32 18 -18
-65 -100 -96 -95 -4 0 -11 -5 -15 -13 -7 -10 -11 -8 -15 10 -9 32 -22 27 -16
-5 5 -25 4 -27 -11 -14 -10 7 -17 11 -17 7 0 -3 -8 2 -18 12 -9 9 -31 27 -47
40 -25 19 -26 22 -8 17 23 -6 63 9 63 24 0 11 -72 23 -80 13 -3 -4 -17 -8 -32
-9 -32 -2 -35 11 -14 61 8 20 12 50 8 77 -2 24 -5 61 -5 82 0 24 -5 37 -14 37
-7 0 -13 7 -13 16 0 13 8 15 41 11 23 -3 44 -9 48 -13 3 -5 20 -17 38 -27 29
-16 33 -16 47 -1 15 14 19 14 48 0 35 -18 74 -21 83 -6 9 15 -27 50 -52 50
-13 0 -23 4 -23 9 0 5 -22 15 -48 22 -27 6 -56 17 -66 24 -23 17 -10 42 25 50
24 5 29 12 27 28 -2 17 -12 23 -44 28 -29 3 -49 14 -67 35 -15 16 -27 32 -27
37 0 4 -7 7 -15 7 -8 0 -15 5 -15 10 0 6 -3 9 -7 9 -20 -3 -23 2 -9 16 8 8 21
15 30 15 8 0 18 5 21 10 3 6 21 10 38 10 27 1 30 2 16 13 -9 7 -21 22 -27 33
-16 31 -94 65 -130 58 -33 -7 -72 10 -72 30 0 8 14 19 30 25 31 10 42 41 15
41 -23 0 -18 37 8 55 12 9 33 14 47 13 23 -3 25 -8 28 -60z m3265 31 c3 -12
10 -18 17 -14 5 3 25 -3 44 -14 18 -11 37 -17 41 -13 5 4 6 0 2 -10 -4 -12 3
-18 31 -23 20 -4 48 -13 62 -20 28 -15 60 -27 75 -29 36 -5 74 -19 70 -26 -3
-4 4 -6 15 -3 14 4 20 0 20 -12 0 -21 -40 -97 -57 -108 -7 -4 -13 -12 -13 -18
0 -5 -10 -25 -22 -44 -26 -40 -51 -44 -100 -17 -57 30 -110 45 -163 44 l-51 0
-42 86 c-22 48 -48 104 -56 125 -8 21 -22 45 -31 53 -27 27 -18 37 30 31 32
-5 46 -3 52 7 7 13 29 22 59 25 7 0 14 -8 17 -20z m-4545 -55 c2 -25 -1 -34
-6 -26 -10 15 -18 -3 -48 -97 -17 -53 -12 -64 23 -46 21 11 29 12 35 2 6 -9 8
-9 9 1 1 6 2 15 3 20 1 4 6 22 10 40 8 34 30 43 40 16 11 -29 6 -54 -15 -75
-19 -19 -33 -51 -44 -103 -2 -10 -8 -23 -13 -30 -5 -6 -13 -22 -17 -35 -12
-39 -55 -96 -78 -102 -12 -4 -38 -5 -58 -2 -19 3 -52 0 -73 -5 -42 -12 -86 1
-86 25 0 8 -4 12 -10 8 -17 -11 -50 19 -50 46 0 30 -25 45 -46 28 -11 -9 -23
-8 -53 6 -38 17 -68 14 -56 -6 9 -14 -11 -11 -24 5 -6 7 -8 22 -4 31 5 15 3
17 -11 12 -25 -10 -40 2 -25 19 6 8 8 14 4 14 -5 0 0 9 10 20 19 20 15 74 -7
110 -18 29 -3 50 36 50 19 0 38 -4 41 -10 3 -5 15 -10 26 -10 32 0 69 -30 69
-56 0 -14 8 -28 17 -31 10 -4 33 -22 51 -40 23 -23 39 -32 52 -28 12 4 29 -5
50 -24 34 -31 74 -43 109 -34 18 5 21 13 21 55 0 30 -4 47 -10 43 -6 -3 -10 5
-10 19 0 15 -12 34 -32 52 -18 15 -38 40 -45 55 -8 20 -17 27 -27 23 -9 -3
-16 -2 -16 4 0 10 46 22 86 22 12 0 29 6 36 13 7 6 20 13 28 15 8 2 20 10 27
19 6 8 16 12 21 9 5 -3 15 1 22 9 20 24 35 12 38 -31z m1186 -143 c-5 -22 -1
-29 22 -39 l27 -13 -22 -15 c-20 -15 -24 -14 -40 0 -28 25 -42 21 -31 -10 7
-16 7 -32 0 -44 -5 -10 -7 -26 -4 -34 4 -10 0 -18 -10 -22 -9 -3 -16 -10 -16
-15 0 -4 7 -6 15 -3 8 4 15 1 15 -5 0 -6 19 -11 44 -11 47 0 76 -19 76 -48 0
-37 -13 -61 -36 -66 -13 -4 -24 -11 -24 -17 0 -8 -4 -8 -14 0 -10 8 -16 9 -21
1 -3 -5 0 -10 8 -10 8 0 20 -6 26 -14 9 -11 7 -15 -9 -19 -18 -4 -19 -9 -10
-32 6 -15 9 -29 7 -31 -7 -7 -71 -16 -116 -17 -36 -1 -47 3 -66 27 -15 18 -25
24 -29 17 -5 -8 -13 -5 -24 8 -19 22 -72 19 -72 -4 0 -7 -7 -16 -16 -19 -23
-9 -36 -7 -29 4 11 18 -6 52 -22 45 -9 -3 -24 2 -34 11 -17 15 -20 15 -52 -5
-19 -11 -36 -18 -39 -15 -9 8 3 44 15 44 6 0 -2 13 -18 30 -19 20 -28 39 -27
60 0 19 -5 33 -14 37 -21 8 -8 63 19 85 41 33 73 16 60 -31 -7 -26 13 -28 22
-2 5 18 7 18 45 -1 41 -20 52 -38 25 -38 -8 0 -15 -6 -15 -14 0 -8 7 -16 15
-20 8 -3 15 -12 15 -19 0 -17 23 -38 45 -41 9 -1 20 -7 23 -12 4 -6 15 -13 25
-17 13 -5 17 -1 17 17 0 14 -6 27 -12 29 -10 4 -9 8 2 16 13 9 13 11 -3 11
-36 0 -28 29 21 77 62 60 73 90 42 113 -21 16 -22 20 -10 54 13 40 47 61 87
53 12 -2 39 -1 60 3 47 8 64 -3 57 -39z m1361 -113 c-10 -29 -26 -70 -36 -90
-11 -21 -20 -45 -22 -55 -2 -10 -8 -27 -14 -38 -6 -11 -16 -45 -23 -75 -7 -30
-23 -82 -36 -114 -28 -68 -29 -79 -9 -51 14 18 16 18 32 3 14 -15 14 -21 2
-49 -15 -38 -46 -73 -51 -58 -7 21 -55 -9 -62 -38 -10 -40 -48 -113 -58 -113
-5 0 -8 3 -6 8 21 43 28 64 33 104 3 25 12 51 19 57 16 14 6 70 -25 140 -10
24 -19 45 -19 47 0 3 55 -3 82 -8 15 -4 87 140 86 172 -3 60 2 75 31 88 20 9
36 30 56 73 32 73 44 71 20 -3z m335 -34 c0 -9 16 -43 35 -76 20 -33 47 -87
61 -120 14 -33 34 -77 45 -97 10 -19 19 -44 19 -53 0 -10 5 -18 10 -18 6 0 10
-8 11 -17 2 -41 55 -118 97 -141 33 -19 42 -20 42 -9 0 9 -4 17 -9 19 -5 2
-11 21 -13 43 -3 28 -10 43 -24 50 -17 8 -19 14 -11 33 12 25 57 31 76 8 7 -8
23 -17 36 -20 14 -4 25 -11 25 -16 0 -6 11 -10 25 -10 15 0 29 -7 33 -17 16
-37 47 -83 57 -83 9 0 65 -96 65 -111 0 -4 -13 -9 -29 -12 -23 -5 -31 -13 -36
-38 -5 -21 -3 -34 6 -39 10 -7 10 -11 0 -24 -9 -11 -10 -16 -2 -16 6 0 11 -7
11 -15 0 -19 -29 -20 -36 -1 -3 8 -12 12 -20 9 -8 -3 -34 4 -59 16 -59 28 -71
27 -51 -4 9 -14 19 -46 21 -71 5 -43 3 -46 -25 -56 -23 -8 -30 -16 -30 -36 0
-33 -35 -89 -45 -72 -4 6 -17 10 -28 9 -47 -3 -65 2 -70 20 -2 10 -18 24 -36
32 -32 14 -38 24 -21 34 6 3 10 16 10 28 0 12 9 33 19 47 16 20 21 22 35 11 9
-7 23 -10 32 -7 13 5 14 9 4 21 -7 8 -18 15 -24 15 -6 0 -17 9 -24 20 -7 11
-19 20 -28 20 -11 0 -14 5 -10 16 4 10 -1 25 -10 36 -10 10 -15 21 -12 24 3 3
2 20 -2 39 -5 22 -3 48 5 72 11 32 10 42 -6 80 -14 33 -16 50 -9 69 15 38 12
63 -10 91 -11 14 -20 35 -20 47 0 12 -4 26 -8 32 -5 5 -19 36 -31 69 -13 33
-27 68 -32 77 -5 10 -9 29 -9 42 0 14 -4 28 -10 31 -5 3 -10 13 -10 21 0 8 5
14 10 14 6 0 10 -7 10 -16z m-3777 -29 c9 -8 13 -23 11 -33 -3 -9 2 -31 10
-47 9 -17 16 -37 16 -45 0 -8 9 -26 19 -39 15 -19 30 -25 70 -28 28 -1 51 1
51 5 0 10 83 95 106 108 15 9 25 7 51 -10 18 -12 34 -29 37 -39 3 -11 12 -17
23 -15 11 2 17 -2 15 -11 -2 -8 3 -18 10 -22 16 -10 8 -18 -22 -22 -26 -4 -50
-32 -50 -58 0 -22 -55 -54 -128 -74 -31 -9 -67 -21 -79 -27 -12 -6 -29 -8 -37
-5 -8 3 -18 3 -20 -2 -7 -10 -96 3 -105 16 -3 5 -14 12 -23 16 -13 5 -18 -1
-20 -26 l-4 -32 -11 25 c-6 14 -7 27 -3 30 4 3 10 22 13 43 6 37 6 37 -30 37
l-36 0 6 40 c3 22 1 40 -4 40 -4 0 -6 7 -2 16 3 9 -3 21 -16 30 -11 8 -21 23
-21 32 1 22 39 73 40 52 0 -24 52 -42 84 -31 31 13 37 51 7 51 -30 0 -35 19
-9 29 32 13 35 13 51 -4z m6417 -185 c0 -5 6 -10 14 -10 7 0 19 -7 26 -15 7
-8 17 -12 22 -9 5 3 16 -3 24 -15 8 -12 22 -21 31 -21 12 0 14 7 9 34 -4 19
-3 37 2 40 15 9 53 -30 56 -57 3 -23 -1 -25 -68 -32 -39 -5 -86 -8 -103 -7
-81 2 -100 2 -135 -4 -50 -8 -49 -24 2 -24 34 0 40 -3 40 -21 0 -16 4 -19 23
-13 12 3 29 12 37 20 23 19 116 -29 129 -68 15 -44 -4 -56 -75 -47 -33 4 -71
8 -86 8 -16 1 -27 4 -27 9 6 36 -2 43 -37 36 -36 -7 -37 -6 -32 20 3 14 1 26
-3 26 -5 0 -9 -9 -9 -19 0 -11 -9 -23 -22 -26 -11 -4 -32 -19 -44 -32 -16 -17
-29 -23 -41 -19 -15 6 -15 8 -3 16 11 7 12 10 2 10 -29 0 -102 -23 -113 -36
-6 -8 -21 -14 -33 -14 -20 1 -20 2 -3 14 9 7 17 20 17 28 0 20 29 45 69 59 23
8 29 14 20 20 -10 6 -10 11 -1 22 7 7 9 17 5 20 -3 4 -1 7 5 7 7 0 11 6 10 12
-2 7 8 14 21 16 13 2 31 10 39 18 10 11 26 13 59 8 37 -5 48 -3 66 14 36 34
107 55 107 32z m-4395 -221 c28 -13 70 -26 94 -29 47 -5 70 -30 29 -30 -14 0
-28 -3 -32 -7 -7 -7 -40 -11 -123 -13 -72 -3 -132 25 -133 61 0 22 4 26 23 22
13 -3 30 3 42 15 12 12 26 17 35 12 8 -4 38 -18 65 -31z m-1160 -90 c4 -6 13
-8 21 -5 8 3 14 1 14 -5 0 -5 8 -9 17 -7 10 2 18 -3 18 -12 0 -11 11 -14 43
-12 24 1 42 -2 42 -8 0 -5 -4 -10 -9 -10 -5 0 -16 -7 -25 -15 -8 -8 -31 -16
-50 -17 -34 -3 -53 -18 -22 -18 8 0 14 -10 14 -25 0 -18 -6 -25 -19 -25 -12 0
-19 7 -19 19 0 17 -8 19 -97 18 -107 -1 -143 3 -143 15 0 5 7 11 16 15 8 3 19
16 24 28 15 40 100 39 100 -1 0 -18 29 -18 36 0 3 8 1 23 -5 34 -16 30 27 60
44 31z m5360 -63 c22 -20 24 -27 15 -50 -5 -15 -17 -29 -25 -32 -8 -4 -15 -15
-15 -26 0 -11 -14 -34 -31 -51 l-31 -31 -29 32 c-16 18 -29 41 -29 52 0 10 -4
21 -10 25 -14 9 0 36 34 65 25 21 51 32 88 39 4 0 19 -10 33 -23z m-2551 -76
c3 -17 14 -43 25 -58 17 -22 21 -50 27 -161 5 -103 4 -132 -5 -126 -8 4 -12 2
-10 -6 7 -52 -26 -53 -48 -1 -12 28 -17 78 -20 201 -1 90 0 167 3 172 10 17
22 9 28 -21z m-484 -96 c32 -7 36 -14 19 -31 -6 -6 -12 -34 -12 -62 -1 -28 -4
-51 -6 -51 -3 0 -13 7 -23 17 -26 23 -34 9 -9 -16 21 -21 48 -19 63 3 5 7 8 6
8 -2 0 -8 -9 -16 -20 -19 -11 -3 -20 -12 -20 -19 0 -8 -4 -14 -10 -14 -5 0
-10 -9 -10 -19 0 -11 -5 -23 -11 -26 -7 -5 -4 -13 7 -26 15 -17 15 -20 0 -44
-16 -25 -16 -25 -36 -5 -23 23 -40 26 -40 6 0 -14 -57 -28 -74 -18 -17 9 2
109 28 151 14 22 26 46 26 54 0 17 29 57 41 57 5 0 9 -14 9 -32 0 -42 20 -24
25 23 3 22 2 28 -3 16 -7 -17 -9 -16 -20 7 -10 22 -9 34 4 64 15 35 16 36 25
14 5 -14 20 -25 39 -28z m-9262 -36 c7 -7 12 -20 12 -30 0 -21 11 -23 28 -6 8
8 15 8 26 -1 8 -7 20 -11 28 -10 32 4 46 -3 58 -28 21 -44 20 -53 -4 -53 -21
0 -53 42 -48 63 1 4 -16 7 -37 7 -22 0 -46 3 -55 6 -11 4 -16 1 -16 -10 0 -9
5 -16 10 -16 6 0 10 -9 10 -20 0 -16 7 -20 33 -20 64 0 77 -9 77 -51 0 -28 -4
-39 -15 -39 -8 0 -15 -5 -15 -11 0 -8 -5 -8 -15 1 -8 7 -15 19 -15 26 0 8 7
14 15 14 9 0 15 9 15 25 0 20 -5 25 -25 25 -16 0 -25 -6 -25 -15 0 -8 -7 -15
-15 -15 -8 0 -15 7 -15 15 0 8 -9 15 -20 15 -14 0 -20 7 -20 21 0 12 -8 23
-20 26 -11 3 -20 9 -20 14 0 5 -8 9 -17 9 -14 0 -15 2 -5 9 7 4 24 6 38 3 21
-4 24 -1 24 27 0 33 8 39 28 19z m6194 -8 c12 -28 8 -35 -24 -37 -35 -3 -77
-33 -45 -33 9 0 17 5 17 10 0 6 15 10 34 10 22 0 40 7 48 18 15 22 45 42 34
23 -5 -7 0 -18 10 -26 18 -13 17 -14 -8 -24 -16 -6 -28 -15 -28 -21 0 -5 -7
-10 -15 -10 -8 0 -15 -4 -15 -9 0 -15 -80 -22 -98 -9 -20 15 -24 89 -6 95 6 2
20 10 30 18 23 18 57 15 66 -5z m-628 -15 c13 -9 28 -15 32 -14 21 4 74 -15
71 -25 -10 -31 -107 -20 -139 16 -21 24 -38 16 -38 -19 0 -22 -3 -24 -27 -18
-15 3 -30 10 -33 14 -3 5 -22 11 -42 15 -25 4 -38 12 -38 22 0 9 6 14 12 12 7
-3 24 2 38 9 31 18 130 10 164 -12z m5115 1 c7 -8 26 -18 43 -21 36 -8 126
-60 148 -85 8 -10 33 -26 55 -36 27 -13 46 -31 57 -56 10 -21 31 -43 49 -52
37 -19 42 -20 34 -6 -3 6 -2 10 3 10 13 0 2 -93 -12 -102 -8 -5 -7 -11 2 -20
6 -6 12 -23 13 -37 l1 -26 7 25 c6 23 12 25 66 25 43 0 63 -4 72 -16 14 -19 6
-59 -12 -59 -14 0 -45 -43 -45 -62 0 -8 3 -9 8 -3 4 6 20 16 35 23 15 6 34 27
42 45 l14 32 0 -50 c1 -84 -9 -125 -30 -125 -27 0 -24 -28 4 -32 16 -2 22 -10
22 -28 0 -15 7 -26 18 -28 9 -2 17 1 17 7 0 6 7 11 15 11 8 0 12 -6 9 -14 -3
-8 2 -29 11 -46 15 -30 15 -33 -1 -51 -21 -23 -14 -104 12 -144 13 -20 14 -28
4 -40 -14 -17 3 -81 23 -88 9 -3 9 -11 1 -34 -7 -20 -8 -36 -2 -47 14 -24 4
-30 -16 -10 -16 16 -17 14 -14 -32 3 -48 20 -64 26 -24 2 11 7 20 12 20 5 0 7
-12 5 -27 -3 -16 -6 -37 -7 -48 -2 -11 -16 -28 -33 -37 -16 -9 -25 -17 -20
-18 12 0 13 -123 1 -157 -5 -17 -15 -23 -36 -23 -30 0 -96 -34 -94 -47 1 -5
-1 -13 -3 -20 -3 -7 2 -26 11 -43 11 -24 13 -37 4 -55 -9 -19 -7 -30 11 -58
15 -25 19 -43 15 -65 -6 -28 -8 -29 -21 -16 -8 8 -15 30 -15 49 0 32 -3 35
-29 35 -16 0 -29 4 -29 9 0 5 7 8 16 7 25 -2 29 24 5 31 -12 3 -21 12 -21 19
0 8 -10 14 -24 14 -13 0 -33 3 -43 7 -17 7 -17 6 -1 -11 10 -9 26 -16 35 -14
14 2 18 -4 18 -28 1 -25 -3 -30 -17 -26 -16 4 -17 1 -7 -27 6 -17 17 -31 24
-31 8 0 16 -8 18 -17 4 -14 5 -13 6 4 1 26 17 38 27 22 3 -6 2 -14 -4 -18 -5
-3 -12 -17 -14 -31 -2 -15 -9 -24 -17 -22 -33 7 -44 -67 -11 -75 15 -4 18 -11
14 -29 -6 -22 -3 -24 35 -24 39 0 41 -1 41 -31 0 -23 -11 -41 -45 -74 -26 -26
-42 -50 -39 -58 7 -20 -50 -82 -67 -72 -7 5 -10 4 -6 -2 7 -11 -40 -40 -49
-30 -13 13 18 65 62 106 45 41 56 75 32 99 -18 18 -34 15 -70 -17 -45 -39 -71
-45 -108 -26 -28 14 -30 14 -30 -2 -1 -18 -22 -53 -33 -53 -3 0 -3 8 0 19 3
11 -2 21 -12 25 -21 8 -35 0 -35 -21 0 -13 -8 -14 -41 -9 -26 4 -46 2 -55 -5
-8 -6 -20 -9 -28 -6 -10 4 -13 -4 -12 -31 1 -32 -2 -37 -21 -34 -12 2 -27 -5
-35 -16 -20 -28 -59 -46 -95 -43 -18 1 -33 -3 -33 -9 0 -5 -13 -10 -29 -10
-17 0 -33 -4 -36 -10 -3 -5 -15 -10 -27 -10 -11 0 -22 -8 -25 -20 -3 -12 -14
-20 -27 -20 -30 0 -101 27 -99 37 3 12 53 16 53 4 0 -6 7 -11 15 -11 8 0 15 6
15 14 0 18 27 39 53 41 11 1 23 7 25 13 2 6 27 23 55 37 62 32 87 53 87 72 0
8 5 11 10 8 6 -3 10 1 10 10 0 10 11 26 25 37 20 16 25 28 25 67 l0 48 -39 7
c-45 7 -52 14 -44 44 4 18 8 20 27 10 11 -6 18 -7 14 -3 -4 4 4 16 17 27 14
11 25 27 25 35 0 9 8 22 18 29 15 11 15 16 3 35 -12 20 -11 24 3 34 18 14 21
42 6 65 -7 11 -8 7 -4 -15 6 -35 -19 -56 -75 -62 -31 -4 -92 -37 -99 -55 -7
-15 -60 -8 -66 8 -3 9 -4 19 -2 22 2 4 -9 7 -26 7 -22 0 -33 6 -39 23 -7 20
-5 22 21 22 20 0 30 5 30 15 0 21 -29 31 -50 17 -13 -8 -21 -7 -29 1 -8 8 -11
4 -11 -15 0 -28 -12 -40 -45 -45 -11 -2 -33 -6 -50 -9 -41 -7 -155 -7 -162 0
-14 13 15 25 72 29 33 3 68 8 78 12 9 4 31 5 48 3 25 -4 32 -1 40 19 17 46 12
58 -28 61 -21 1 -42 7 -47 12 -9 9 3 13 77 25 20 3 37 11 37 17 0 7 5 6 15 -2
10 -9 15 -9 15 -1 0 6 -4 11 -9 11 -5 0 -8 8 -6 18 1 9 0 11 -2 3 -4 -9 -14
-11 -36 -7 -51 10 -61 46 -16 56 17 4 25 14 27 32 2 19 12 29 33 37 17 6 28
15 24 21 -3 6 0 7 10 4 11 -5 14 -2 9 10 -12 32 5 65 39 74 23 6 31 14 29 28
-10 72 -6 109 11 112 13 3 17 -3 17 -25 0 -21 3 -24 9 -13 6 8 7 18 5 22 -3 5
8 11 24 14 43 9 122 80 122 110 0 14 5 34 11 46 8 14 7 28 -1 48 -6 16 -10 37
-7 47 3 14 7 11 18 -14 7 -18 16 -33 19 -33 4 0 11 17 16 38 10 43 36 52 84
30 21 -9 28 -18 25 -30 -5 -13 -1 -15 17 -11 41 10 68 43 65 80 -1 18 -7 33
-14 33 -28 0 -63 24 -63 43 0 19 1 19 18 4 23 -21 33 -22 26 -3 -4 10 5 16 27
21 23 5 28 10 18 16 -10 6 -1 9 26 10 29 0 35 2 21 8 -19 7 -18 8 5 14 20 6
21 9 9 17 -10 6 -11 10 -2 10 22 0 12 18 -18 32 -20 9 -30 20 -30 35 0 16 -8
25 -25 29 -14 3 -32 16 -40 27 -13 19 -18 20 -35 9 -27 -17 -67 -15 -74 3 -4
11 1 15 19 15 15 0 26 7 30 20 10 33 -3 41 -41 25 -18 -7 -34 -11 -34 -8 0 3
-11 -7 -25 -23 -13 -15 -27 -25 -31 -22 -3 4 -17 3 -30 -2 -21 -8 -26 -6 -38
25 -14 33 -34 52 -22 20 6 -17 -22 -35 -56 -35 -18 0 -20 -2 -8 -10 10 -6 11
-10 3 -10 -7 0 -13 -7 -13 -15 0 -8 7 -15 15 -15 14 0 13 -3 -2 -24 -13 -18
-25 -23 -44 -19 -16 3 -32 -1 -42 -11 -18 -18 -37 -21 -37 -6 0 6 -3 10 -7 10
-5 0 -9 -17 -10 -37 -2 -38 30 -95 40 -71 3 7 6 3 6 -9 1 -13 7 -23 15 -23 7
0 19 -6 25 -14 14 -17 1 -28 -38 -32 -14 -2 -27 -8 -29 -14 -7 -19 -31 -10
-46 18 -15 27 -16 27 -22 5 -3 -13 -12 -23 -19 -23 -22 0 -14 53 20 127 34 73
35 95 4 67 -27 -24 -112 -11 -129 21 -10 19 -9 27 5 49 14 21 15 29 5 41 -10
12 -10 15 3 15 9 0 17 10 19 23 2 15 18 29 56 47 51 24 66 40 38 40 -8 0 -16
4 -18 9 -7 20 -118 10 -118 -10 0 -6 -9 -5 -20 1 -11 6 -17 16 -14 25 4 9 -6
27 -25 44 -46 43 -39 53 26 30 68 -23 63 -23 63 1 0 23 30 61 42 54 4 -3 8 11
8 30 0 23 6 38 17 45 16 9 16 11 2 28 -11 12 -15 30 -12 56 6 43 18 54 38 37
12 -10 15 -9 15 4 0 21 18 21 42 -1 24 -21 23 -38 -2 -56 -21 -14 -21 -15 6
-46 18 -22 32 -30 45 -26 11 4 19 2 19 -5 0 -8 12 -10 38 -6 20 3 42 7 49 8 6
1 14 16 18 35 4 24 11 33 25 33 11 0 20 6 20 14 0 8 8 17 17 20 14 6 15 9 4
15 -9 6 -10 11 -3 15 6 4 16 -3 22 -14 17 -31 28 -24 24 17 -4 53 10 69 35 39z
m-4929 -25 c0 -6 53 -8 124 -6 112 2 127 1 145 -17 14 -12 21 -14 21 -6 0 7
11 0 25 -17 24 -30 24 -30 4 -47 -11 -9 -27 -14 -35 -11 -12 4 -13 1 -4 -22
10 -27 6 -45 -11 -45 -5 0 -9 9 -9 20 0 15 -7 20 -25 20 -14 0 -25 -4 -25 -10
0 -5 7 -7 15 -4 8 4 15 1 15 -5 0 -17 -26 -13 -67 9 -21 11 -47 20 -58 20 -11
0 -29 7 -39 15 -11 8 -31 15 -45 15 -26 0 -137 49 -113 50 6 0 12 8 12 18 0
14 2 15 10 2 9 -14 12 -12 9 6 -1 9 23 24 39 24 6 0 12 -4 12 -9z m7926 -279
c6 -4 13 -15 17 -24 3 -10 13 -18 22 -18 8 0 33 -18 55 -40 22 -22 49 -40 60
-40 13 0 20 -7 20 -18 0 -11 8 -18 22 -19 13 -1 24 -7 26 -13 2 -6 10 -17 18
-24 8 -8 14 -20 14 -26 0 -6 5 -8 10 -5 6 4 17 4 25 1 21 -8 6 -46 -19 -47
-20 -1 -20 -2 -1 -6 37 -8 65 -26 65 -42 0 -15 -47 -53 -82 -67 -25 -9 -24
-37 1 -29 13 4 27 -1 40 -14 17 -17 18 -24 9 -55 -6 -20 -16 -36 -21 -36 -5 0
-7 6 -4 13 3 8 -1 14 -10 14 -9 0 -13 -7 -10 -18 3 -12 0 -16 -9 -12 -9 3 -14
-2 -14 -13 -1 -18 -1 -18 -11 -1 -5 9 -19 17 -29 17 -16 0 -20 7 -20 35 0 34
-1 35 -40 35 -35 0 -40 -3 -40 -22 -1 -21 -1 -22 -11 -5 -6 11 -12 24 -13 31
-1 6 -9 22 -19 36 -9 13 -17 31 -17 39 0 8 -17 48 -37 88 -37 72 -37 73 -20
108 21 44 21 80 3 133 -17 47 -9 64 20 44z m-4160 -51 c5 -4 31 -16 57 -24 41
-14 54 -14 86 -4 24 9 47 10 66 4 17 -4 53 -11 80 -14 28 -2 57 -10 65 -17 28
-24 86 -45 107 -40 16 4 22 0 27 -20 7 -28 25 -33 44 -14 9 9 12 9 12 0 0 -7
-5 -12 -11 -12 -5 0 -7 -5 -4 -11 4 -6 -2 -13 -14 -16 -24 -6 -28 -23 -6 -23
8 0 15 -7 15 -15 0 -8 -6 -15 -14 -15 -10 0 -12 -7 -9 -22 5 -19 3 -21 -8 -10
-18 16 -39 15 -39 -2 0 -8 -4 -17 -8 -20 -14 -8 -52 5 -52 19 0 7 -7 18 -15
25 -8 7 -15 21 -15 31 0 21 -22 38 -28 21 -2 -7 -9 -12 -16 -12 -20 0 -66 61
-66 87 0 41 -47 71 -66 42 -3 -6 -18 -8 -33 -5 -19 5 -22 4 -11 -4 12 -7 8
-10 -16 -10 -33 0 -44 -13 -44 -53 0 -16 -18 -80 -26 -95 -6 -10 -44 25 -44
40 0 9 -4 20 -10 23 -5 3 -10 22 -10 40 0 35 -22 57 -47 48 -7 -3 -13 0 -13 5
0 6 9 14 20 17 24 8 25 22 3 47 -15 17 -15 18 8 18 14 0 29 -4 35 -9z m2293
-44 c6 -8 23 -12 39 -9 23 3 30 -1 35 -17 3 -12 2 -21 -3 -21 -4 0 -13 -14
-20 -30 -10 -23 -10 -33 -1 -44 9 -11 9 -16 1 -21 -7 -4 -10 -16 -7 -26 3 -11
2 -17 -3 -14 -10 6 -20 -19 -20 -53 0 -30 -37 -98 -48 -88 -14 14 -29 -58 -18
-86 8 -21 7 -34 -2 -48 -9 -15 -10 -26 -1 -41 8 -17 7 -23 -7 -33 -11 -9 -15
-19 -10 -31 7 -20 -9 -45 -30 -45 -8 0 -27 -14 -43 -32 -25 -28 -31 -30 -45
-19 -10 8 -16 9 -16 3 0 -6 4 -13 10 -17 15 -9 0 -35 -21 -35 -12 0 -19 7 -19
20 0 11 5 20 10 20 10 0 5 53 -6 72 -3 4 2 8 10 8 9 0 16 7 16 15 0 8 -6 12
-15 9 -9 -4 -16 3 -21 21 -5 20 -11 25 -26 22 -18 -5 -19 -2 -14 36 19 141 20
135 -7 159 -20 18 -25 35 -28 78 -5 93 15 164 36 129 4 -5 18 -14 31 -19 22
-9 23 -13 19 -79 -4 -63 -2 -72 16 -81 16 -9 26 -8 45 5 13 8 24 22 24 29 0 7
3 28 6 45 6 26 4 31 -14 31 -24 0 -35 23 -19 39 14 14 47 14 47 -1 0 -6 7 -4
18 5 10 10 32 17 49 17 39 0 45 7 28 39 -7 15 -16 43 -20 64 -6 33 -5 37 13
37 11 0 25 -6 31 -13z m-2027 -162 c50 -8 60 -41 27 -90 -26 -38 -52 -48 -97
-39 -76 15 -95 101 -29 129 18 8 39 12 47 10 8 -2 32 -6 52 -10z m328 -54 c0
-23 5 -30 23 -33 20 -3 22 -8 21 -54 l-1 -52 37 5 c21 3 40 1 43 -3 8 -14 -5
-104 -15 -104 -5 0 -6 5 -3 10 3 6 -1 10 -9 10 -9 0 -16 -7 -16 -15 0 -11 -12
-15 -48 -15 -62 0 -83 20 -70 68 5 18 13 30 17 27 13 -8 24 46 12 58 -8 8 -11
6 -11 -5 0 -9 -18 -22 -43 -32 -54 -20 -63 -20 -71 1 -7 17 9 33 34 33 19 0
45 39 41 63 -1 9 3 17 8 17 6 0 11 -7 11 -15 0 -9 9 -15 22 -15 20 0 20 1 5
18 -18 19 -22 44 -10 55 14 15 23 6 23 -22z m-195 -361 c3 -5 15 -6 29 0 18 6
26 4 37 -12 35 -51 51 -68 65 -68 17 0 19 -20 2 -21 -7 0 -3 -5 10 -11 12 -6
22 -15 22 -20 0 -4 7 -8 16 -8 10 0 14 6 10 15 -7 18 15 20 32 3 7 -7 12 -20
12 -29 0 -10 7 -16 17 -15 10 0 19 -7 21 -16 3 -14 -3 -18 -29 -18 -18 0 -38
-7 -46 -17 -13 -17 -14 -16 -9 5 3 18 1 22 -11 18 -8 -3 -26 3 -40 14 -28 22
-48 25 -58 9 -10 -14 4 -61 15 -54 5 3 15 -3 22 -15 7 -11 21 -20 31 -20 14 0
17 -5 12 -19 -3 -11 -1 -22 5 -26 7 -4 9 -17 6 -30 -4 -14 0 -28 9 -35 13 -11
11 -17 -16 -43 l-32 -30 -18 21 c-9 12 -30 23 -46 24 -15 1 -31 7 -35 13 -5 6
-8 3 -8 -7 0 -10 -4 -18 -9 -18 -5 0 -11 -8 -14 -19 -3 -14 -16 -20 -46 -23
-47 -4 -71 12 -52 35 8 11 6 18 -8 31 -17 16 -19 16 -25 -6 -5 -18 -8 -20 -15
-9 -6 10 -19 12 -45 7 -35 -7 -36 -6 -36 24 0 17 5 30 13 31 6 0 23 2 36 5 14
2 28 -1 32 -7 5 -8 8 -8 13 0 4 6 2 11 -3 11 -6 0 -11 7 -11 16 0 13 -7 15
-37 9 -21 -4 -39 -11 -41 -15 -2 -5 -12 -4 -21 2 -11 6 -26 8 -37 3 -25 -10
-96 -6 -111 7 -7 6 -20 7 -30 2 -19 -8 -30 -10 -76 -13 -15 0 -26 -4 -25 -8 2
-5 -4 -18 -13 -31 -14 -19 -18 -20 -22 -8 -4 9 -12 13 -20 10 -8 -3 -20 2 -27
11 -7 8 -28 15 -46 15 -33 0 -34 1 -34 41 0 35 -3 40 -19 34 -13 -4 -23 2 -35
20 -9 14 -23 25 -30 25 -17 0 -27 25 -20 45 9 23 33 18 44 -10 9 -23 40 -36
40 -17 0 14 74 42 81 31 4 -7 19 -8 38 -4 25 5 35 3 45 -11 12 -15 17 -16 45
-5 21 9 31 20 31 35 0 11 7 29 15 40 13 17 14 14 17 -30 3 -45 4 -47 20 -31 9
9 23 14 31 11 23 -8 61 15 49 29 -14 17 4 61 22 54 8 -3 20 1 26 8 7 8 22 13
33 12 16 -1 23 4 25 21 2 12 5 22 8 22 12 0 50 -27 67 -47 20 -24 73 -33 64
-10 -19 51 -18 53 20 64 51 14 61 15 68 3z m488 -237 c12 -10 17 -10 20 0 3 7
6 -3 6 -22 1 -32 -27 -71 -50 -71 -5 0 -16 -14 -24 -31 -18 -34 -50 -36 -50
-4 0 11 -3 25 -7 31 -11 16 18 37 41 31 13 -3 21 1 24 14 4 15 0 19 -21 19
-30 0 -62 26 -62 51 0 25 16 32 33 14 13 -13 15 -12 20 6 5 19 6 19 30 -3 14
-13 32 -28 40 -35z m-119 -580 c-8 -47 -14 -53 -56 -62 -18 -4 -34 -12 -34
-19 -1 -7 -2 -17 -3 -23 0 -6 -8 -9 -16 -6 -8 4 -17 2 -19 -2 -3 -5 -23 -11
-45 -15 -21 -3 -41 -13 -45 -21 -7 -19 -56 -20 -56 -1 0 8 -7 17 -16 20 -21 8
-14 51 8 50 11 -1 14 4 11 14 -4 9 -2 13 4 9 20 -12 44 4 38 24 -5 16 -1 19
29 19 20 0 36 3 36 8 0 4 9 13 21 20 18 12 23 11 36 -7 17 -25 33 -27 33 -6 0
8 9 15 19 15 11 0 23 5 26 10 3 6 13 10 21 10 12 0 13 -8 8 -37z m-8109 -1813
c3 -5 17 -10 31 -10 24 0 24 0 8 -37 -8 -21 -18 -49 -20 -63 -3 -13 -10 -30
-16 -37 -6 -7 -8 -19 -5 -27 3 -8 0 -17 -8 -20 -7 -2 -15 -15 -17 -28 -4 -33
-41 -31 -50 2 -4 14 -4 7 -1 -15 3 -22 6 -81 6 -131 -1 -97 -13 -139 -47 -158
-11 -6 -29 -19 -40 -28 -11 -10 -24 -18 -28 -18 -5 0 -21 -11 -35 -24 -22 -20
-30 -22 -49 -14 -13 6 -26 20 -30 31 -4 11 -17 31 -30 44 -21 21 -23 30 -18
76 4 36 0 68 -13 106 -20 61 -37 74 -47 36 -4 -14 -13 -25 -21 -25 -18 0 -18
7 -3 68 15 64 65 121 137 160 63 34 131 43 131 19 0 -8 9 -22 20 -32 18 -17
20 -17 20 -1 0 9 7 19 15 22 9 4 12 15 9 33 -8 37 28 81 66 81 16 0 32 -4 35
-10z m-761 -355 c3 -8 18 -15 34 -15 24 0 30 -6 44 -45 14 -36 15 -52 6 -77
-15 -46 -27 -56 -41 -37 -7 9 -25 19 -41 23 -27 7 -28 9 -24 57 4 35 1 55 -8
64 -8 7 -14 21 -14 29 0 20 36 21 44 1z m3581 -267 c20 -9 26 -17 22 -35 -3
-16 2 -28 16 -38 11 -8 21 -22 22 -32 1 -10 6 -26 10 -35 4 -10 4 -25 1 -34
-5 -13 -9 -13 -37 3 -17 10 -48 36 -68 57 -20 21 -44 47 -53 58 -23 23 -23 26
5 49 26 22 46 23 82 7z m-2730 -151 c-2 -102 -43 -162 -100 -147 -5 2 -35 10
-65 17 -50 14 -100 51 -100 74 0 5 -13 6 -30 3 -34 -7 -38 4 -12 33 17 20 68
39 87 33 6 -1 36 -2 67 -1 60 1 93 13 116 43 24 32 38 11 37 -55z m1042 -43
c12 -3 25 -16 29 -28 3 -11 24 -37 46 -57 l40 -37 -21 -40 c-20 -39 -22 -41
-51 -30 -25 8 -37 25 -65 83 -44 96 -39 125 22 109z m-939 -301 c18 -16 19
-22 9 -53 -15 -43 -67 -74 -101 -59 -45 21 -58 109 -16 109 10 0 22 5 25 10
10 16 61 12 83 -7z m-1554 1 c22 -8 20 -34 -2 -34 -10 0 -29 -13 -42 -28 -14
-16 -48 -36 -75 -46 -28 -10 -69 -26 -93 -37 -23 -10 -50 -19 -60 -19 -9 0
-42 -9 -72 -20 -65 -24 -83 -25 -118 -6 -15 8 -45 18 -66 21 l-39 7 29 23 c16
14 35 24 42 25 6 0 12 3 12 8 0 4 21 15 48 25 26 10 54 22 62 26 8 4 51 8 95
9 63 2 90 7 125 26 44 24 119 33 154 20z m3176 -146 c25 -14 58 -40 73 -58 18
-19 34 -29 44 -26 8 3 19 6 25 6 6 0 8 11 6 25 -4 20 -3 23 8 14 8 -6 14 -20
14 -30 0 -11 4 -19 8 -19 11 0 3 -58 -9 -65 -4 -3 -16 6 -25 20 -9 14 -22 25
-28 24 -6 -1 -19 1 -30 6 -11 5 -21 3 -26 -5 -10 -17 -30 -4 -30 21 0 10 -5
19 -11 19 -5 0 -7 5 -4 10 3 6 2 10 -3 10 -6 0 -13 -8 -16 -17 -4 -10 -10 -13
-14 -8 -4 6 -14 10 -22 10 -10 0 -15 9 -15 27 1 14 -3 24 -7 22 -4 -3 -8 12
-8 32 0 32 2 35 13 22 6 -8 32 -26 57 -40z m1770 32 c0 -5 -6 -10 -14 -10 -8
0 -17 -4 -20 -9 -8 -13 4 -42 15 -35 5 3 9 -3 9 -13 0 -11 -22 -36 -51 -58
-28 -21 -55 -49 -60 -62 -5 -13 -16 -23 -24 -23 -18 0 -32 29 -19 39 31 22 47
98 19 87 -8 -3 -15 -2 -15 3 0 5 9 11 20 14 11 3 23 13 26 24 14 37 37 53 76
53 21 0 38 -4 38 -10z m758 -37 c41 -27 52 -40 52 -61 0 -25 67 -41 82 -20 6
9 7 6 3 -9 -8 -29 18 -36 75 -19 42 13 45 16 42 45 -3 44 15 38 28 -9 6 -22
13 -40 16 -40 2 0 2 11 -2 25 -7 28 2 32 25 11 21 -18 77 -30 85 -18 3 6 16 8
28 4 21 -5 21 -6 2 -13 -19 -8 -14 -9 59 -13 10 -1 22 -8 27 -16 8 -13 10 -12
10 3 0 24 27 21 41 -5 10 -19 8 -25 -17 -46 l-29 -25 28 5 c39 8 33 -9 -10
-29 -21 -10 -45 -22 -53 -29 -8 -6 -31 -14 -50 -17 -63 -9 -109 -33 -140 -73
-28 -34 -37 -39 -78 -41 -26 -1 -48 -7 -50 -12 -12 -37 -85 27 -127 110 -13
25 -31 51 -39 58 -9 8 -16 18 -16 23 0 9 -78 127 -91 138 -3 3 -14 19 -23 37
-16 33 -10 48 17 37 9 -3 24 -1 34 5 25 15 40 13 71 -6z m-6437 -703 c151
-228 170 -261 162 -288 -10 -38 -73 -37 -73 2 0 6 -13 18 -29 28 -16 9 -42 36
-58 59 -15 24 -36 51 -45 61 -41 41 -58 120 -38 173 15 39 38 28 81 -35z
m6934 -206 c11 4 15 -2 15 -24 0 -18 5 -30 13 -30 7 0 21 -10 31 -21 17 -21
17 -22 -4 -51 -18 -24 -20 -32 -9 -39 15 -9 15 -9 -63 -29 -45 -12 -48 -15
-48 -46 0 -28 -4 -34 -32 -42 -18 -6 -58 -11 -88 -12 -30 0 -60 -6 -67 -11
-15 -13 -33 -3 -33 18 0 8 9 26 20 40 23 30 27 51 5 33 -20 -16 -36 -3 -29 24
4 16 0 25 -10 29 -11 4 -14 18 -12 51 2 46 15 72 23 49 5 -15 53 -18 53 -3 0
6 7 10 15 10 26 0 16 -20 -21 -42 -26 -15 -32 -23 -22 -29 10 -7 9 -9 -4 -9
-10 0 -18 5 -18 12 0 6 -2 9 -5 6 -10 -9 6 -37 23 -41 10 -2 25 3 34 11 22 18
41 6 35 -24 -4 -25 0 -28 27 -18 17 6 23 54 7 54 -19 0 -6 39 17 49 22 11 23
10 16 -24 -5 -29 -4 -34 9 -29 8 3 21 19 27 35 7 16 16 29 20 29 10 0 23 38
29 84 1 5 8 3 16 -4 8 -7 22 -10 30 -6z m-2438 -844 c40 -17 43 -22 49 -69 6
-48 9 -52 48 -70 23 -10 65 -21 94 -25 28 -4 107 -29 174 -57 122 -51 143 -58
332 -122 55 -19 102 -39 104 -45 5 -17 -7 -15 -79 14 -35 14 -93 32 -129 40
-153 32 -275 66 -324 91 -16 8 -66 21 -112 28 -45 8 -96 21 -112 29 -16 8 -33
12 -37 8 -3 -4 -46 -8 -93 -8 -48 -1 -130 -3 -182 -4 -92 -3 -140 7 -140 30 0
5 17 12 38 16 55 10 87 26 132 64 52 44 149 99 175 99 11 0 39 -8 62 -19z
m-3602 -500 c3 -5 17 -10 30 -10 13 0 28 -6 32 -12 9 -15 57 -35 133 -55 30
-8 60 -21 66 -29 6 -7 14 -11 17 -8 5 5 31 -1 97 -22 8 -3 17 -5 20 -5 3 0 12
-7 21 -15 9 -8 18 -11 22 -8 3 4 39 -4 79 -17 40 -12 79 -22 86 -20 6 1 12 -2
12 -8 0 -5 17 -11 38 -14 20 -2 64 -14 97 -25 112 -40 190 -64 235 -73 67 -14
83 -20 74 -29 -11 -10 -102 -16 -124 -8 -8 3 -31 11 -50 18 -19 7 -72 23 -117
35 -45 13 -88 27 -95 32 -7 4 -35 13 -63 20 -27 6 -67 16 -87 22 -57 17 -96
28 -172 50 -38 11 -76 27 -86 36 -9 8 -27 15 -41 15 -44 0 -193 55 -185 69 3
4 -12 13 -32 20 -45 16 -64 30 -56 42 7 12 41 11 49 -1z m1355 -417 c25 -9 51
-24 58 -33 12 -13 13 -13 8 3 -5 14 -1 16 22 11 35 -9 85 -34 95 -48 6 -8 10
-7 14 2 7 18 34 15 49 -5 11 -15 15 -16 23 -4 8 12 12 12 26 -2 19 -20 40 -23
29 -4 -4 6 2 3 15 -7 12 -11 18 -23 14 -27 -10 -9 -103 11 -103 22 0 5 -6 6
-14 3 -7 -3 -43 2 -80 10 -37 9 -70 15 -74 14 -4 -1 -32 6 -63 16 -31 9 -61
16 -65 15 -23 -4 -31 3 -31 26 0 30 14 32 77 8z"/>
<path d="M4174 9695 c-21 -19 -42 -35 -45 -35 -11 0 -49 -37 -49 -49 0 -6 11
-11 25 -11 14 0 25 -6 25 -12 1 -36 16 -39 71 -18 72 28 84 41 69 70 -10 18
-8 25 9 44 32 34 26 46 -22 46 -35 0 -51 -6 -83 -35z"/>
<path d="M4457 9562 c-9 -9 -23 -42 -31 -72 -9 -30 -23 -76 -32 -102 -22 -63
-14 -83 29 -73 17 4 46 8 62 8 28 2 30 5 33 47 3 42 -24 185 -38 203 -4 4 -14
-1 -23 -11z"/>
<path d="M3793 9445 c-28 -13 -74 -32 -102 -41 -59 -19 -65 -26 -57 -60 7 -28
27 -31 60 -9 21 14 24 13 40 -4 14 -16 23 -18 45 -10 43 15 89 69 93 109 4 44
-11 47 -79 15z"/>
<path d="M3643 9153 c-9 -3 -8 -11 4 -31 16 -25 65 -87 98 -123 8 -9 15 -21
15 -27 0 -7 7 -12 15 -12 9 0 15 -9 15 -25 0 -14 3 -25 8 -25 4 0 22 -13 41
-29 19 -17 38 -28 43 -25 4 3 10 -6 14 -19 4 -18 11 -23 25 -20 10 3 19 0 19
-6 0 -6 7 -11 16 -11 9 0 18 -9 21 -20 3 -11 12 -20 19 -20 8 0 17 -6 20 -14
3 -8 17 -17 31 -21 14 -3 32 -12 39 -20 8 -7 23 -11 34 -8 14 4 20 0 20 -11 0
-23 -38 -20 -75 4 -16 12 -45 27 -63 35 -19 8 -54 28 -78 45 -25 16 -49 30
-55 30 -5 0 -12 7 -15 15 -4 8 -11 15 -16 15 -13 0 -98 92 -98 106 0 6 -8 20
-17 32 -10 11 -25 29 -33 39 -8 10 -27 32 -41 49 l-26 31 -10 -28 c-9 -24 -8
-31 13 -50 13 -12 24 -26 24 -31 0 -13 272 -284 295 -293 20 -8 20 -8 0 -13
-10 -2 -21 1 -23 7 -2 6 -14 11 -27 11 -14 0 -25 7 -28 20 -3 11 -10 20 -16
20 -7 0 -7 -9 0 -30 6 -16 17 -30 24 -30 8 0 17 -9 20 -20 7 -23 16 -24 64
-10 28 8 38 6 53 -7 22 -20 23 -39 2 -51 -14 -8 -14 -12 -3 -33 18 -32 29 -39
61 -39 15 0 33 -6 41 -14 8 -8 30 -15 48 -15 65 0 84 -3 168 -28 25 -7 -2 -21
-51 -26 -31 -3 -53 0 -67 9 -12 9 -22 11 -26 4 -10 -16 -45 -12 -45 5 0 8 -7
15 -15 15 -8 0 -15 -5 -15 -11 0 -6 -18 -9 -45 -8 -25 2 -50 -2 -57 -9 -9 -9
-1 -11 33 -9 56 2 247 -11 322 -23 32 -5 64 -7 72 -4 7 3 22 1 32 -4 10 -6 55
-13 99 -15 45 -3 113 -15 152 -27 71 -22 92 -21 92 5 0 7 7 15 15 17 9 2 12 8
6 16 -7 11 -11 11 -23 -2 -14 -14 -16 -13 -21 5 -4 16 -11 19 -26 14 -12 -4
-21 -2 -21 4 0 6 -16 11 -35 11 -29 0 -38 5 -48 28 -6 15 -20 33 -29 40 -22
16 -23 32 -3 32 24 0 95 -24 95 -32 0 -5 11 -8 25 -8 15 0 39 -7 55 -15 16 -8
33 -14 37 -14 4 1 17 -1 28 -5 53 -20 123 -38 160 -41 6 0 15 -3 20 -7 6 -3
48 -9 95 -13 47 -4 113 -10 148 -14 34 -4 64 -5 67 -3 13 13 2 23 -22 21 -16
-2 -37 2 -48 9 -17 10 -11 12 38 8 55 -4 57 -3 57 20 0 15 6 24 15 24 8 0 15
-9 15 -19 0 -28 28 -35 33 -8 l4 22 2 -22 c0 -14 7 -23 18 -23 15 0 14 -2 -2
-14 -11 -8 -24 -12 -30 -9 -5 4 -7 3 -3 -2 4 -4 3 -14 -3 -22 -9 -10 -8 -13 2
-14 8 -1 4 -4 -9 -7 -35 -10 -28 -26 15 -37 29 -7 38 -14 35 -27 -2 -10 1 -18
7 -18 5 0 11 10 13 23 3 19 9 22 58 24 30 1 48 -1 40 -4 -8 -3 -26 -10 -39
-15 -18 -6 -21 -11 -12 -22 8 -10 8 -16 -1 -23 -16 -12 -87 -45 -102 -47 -6
-1 -17 -5 -23 -9 -7 -5 -36 -15 -65 -23 -29 -9 -61 -23 -70 -31 -9 -8 -22 -12
-27 -8 -6 3 -14 -1 -17 -9 -3 -9 -16 -16 -29 -16 -13 0 -25 -7 -29 -15 -3 -8
-13 -15 -23 -15 -9 0 -35 -8 -57 -19 -23 -10 -57 -24 -76 -31 -19 -7 -42 -19
-50 -25 -8 -7 -31 -20 -50 -30 -110 -56 -130 -68 -130 -77 0 -5 -8 -8 -17 -7
-16 3 -100 -44 -114 -64 -9 -12 -59 -37 -75 -37 -8 0 -14 -4 -14 -10 0 -5 -5
-10 -12 -10 -6 0 -26 -11 -43 -25 -18 -13 -35 -22 -38 -19 -2 3 -17 -6 -32
-20 -15 -14 -43 -31 -61 -38 -19 -7 -34 -16 -34 -20 0 -4 -8 -8 -17 -8 -15 0
-16 -2 -3 -10 12 -8 9 -10 -12 -10 -15 0 -33 -7 -42 -15 -8 -8 -19 -15 -25
-15 -6 0 -23 -12 -39 -27 -16 -16 -39 -35 -51 -43 -27 -18 -27 -30 -1 -23 11
3 20 9 20 13 0 8 42 16 115 23 43 3 185 64 185 78 0 5 9 9 20 9 11 0 39 12 62
28 56 37 56 37 119 66 68 32 82 32 121 4 25 -17 34 -19 50 -9 10 6 23 9 28 6
6 -4 10 -1 10 5 0 6 -11 15 -24 20 -14 5 -29 18 -35 28 -11 21 -25 12 256 157
79 40 145 69 148 65 3 -5 -6 -33 -19 -63 -23 -53 -41 -68 -88 -72 -25 -2 -31
-10 -24 -32 9 -27 50 -26 91 1 20 14 50 28 68 32 39 8 77 32 77 49 0 12 68 65
84 65 15 0 141 53 147 62 3 5 39 11 79 14 40 2 78 8 86 15 7 6 37 12 66 14 60
3 138 22 138 33 0 4 10 12 22 17 32 15 47 43 28 56 -12 9 -12 10 3 5 13 -4 20
0 24 12 8 32 108 71 180 70 43 0 67 5 78 15 20 21 4 30 -38 22 l-32 -6 29 15
c36 20 86 21 86 2 0 -13 4 -13 28 0 15 7 32 14 38 14 7 0 14 7 18 15 3 8 12
15 21 15 11 0 14 6 9 25 -7 28 15 35 35 11 10 -12 26 -7 99 31 48 25 89 48 92
50 6 7 -45 -1 -138 -21 -94 -20 -506 -26 -524 -8 -9 9 -9 15 0 24 7 7 12 23
12 35 0 20 -3 22 -18 14 -11 -6 -24 -6 -33 0 -7 5 -35 9 -61 9 -26 0 -50 5
-53 10 -4 7 -11 8 -18 1 -16 -12 -109 -5 -118 10 -3 6 -25 19 -47 29 -35 16
-41 16 -55 3 -11 -11 -20 -12 -34 -5 -12 7 -25 7 -36 1 -13 -8 -17 -6 -17 6 0
11 -11 15 -42 17 -24 0 -50 1 -58 2 -8 1 -16 9 -18 19 -4 21 -11 22 -27 0 -15
-21 -38 -8 -30 18 5 15 1 19 -17 19 -13 0 -30 -6 -36 -12 -10 -10 -15 -10 -22
1 -8 14 -27 18 -93 24 -15 1 -31 8 -36 15 -4 7 -14 12 -22 10 -8 -2 -14 5 -14
17 0 22 -35 45 -67 45 -14 0 -18 -5 -14 -15 6 -17 -2 -19 -23 -6 -7 5 -11 13
-8 18 3 5 -14 18 -39 29 -42 20 -62 16 -26 -5 15 -9 15 -12 2 -20 -10 -7 -20
-5 -33 6 -10 10 -28 18 -40 20 -11 2 -25 9 -29 16 -4 6 -13 12 -20 12 -24 0
-13 29 14 39 21 8 32 6 46 -7 13 -12 36 -17 75 -17 31 0 57 -4 57 -8 0 -13 58
-29 150 -42 47 -7 96 -17 109 -24 13 -6 33 -10 43 -8 10 2 38 -6 61 -16 23
-11 67 -23 97 -27 30 -4 64 -12 75 -18 11 -6 23 -11 27 -12 3 0 10 -3 14 -7 4
-5 22 -8 41 -8 19 0 44 -6 56 -14 12 -8 49 -18 82 -22 33 -4 77 -13 99 -20 61
-22 76 -2 25 35 -26 20 -36 21 -73 13 -32 -6 -52 -5 -74 4 -42 17 -149 44
-177 44 -32 0 -114 36 -121 53 -2 7 0 26 5 40 14 36 -10 37 -37 2 -17 -22 -23
-23 -53 -14 -19 6 -50 10 -69 10 -19 -1 -62 7 -95 18 -52 16 -60 22 -63 45 -2
15 -10 30 -18 33 -8 3 -14 11 -14 18 0 22 26 24 43 4 22 -25 32 -24 34 4 4 47
14 67 33 67 13 0 20 7 20 18 0 28 11 34 30 17 16 -14 18 -13 24 16 8 39 2 47
-21 27 -10 -8 -26 -18 -35 -21 -9 -3 -18 -16 -21 -29 l-4 -23 -2 23 c0 13 4
32 9 42 8 16 8 18 -5 14 -8 -4 -15 -14 -15 -24 0 -31 -20 -34 -21 -3 0 15 -3
22 -6 16 -8 -20 -17 -15 -36 17 -12 20 -26 30 -43 30 -29 0 -32 -24 -7 -88 11
-29 13 -46 6 -50 -17 -11 -25 -69 -13 -91 8 -16 8 -21 -2 -21 -26 0 -154 34
-194 51 -23 10 -53 21 -67 24 -14 4 -44 22 -66 41 -23 20 -42 30 -46 24 -10
-16 -38 -12 -97 14 -55 24 -128 40 -128 26 0 -13 60 -70 73 -70 7 0 26 -13 41
-29 l27 -28 -25 2 c-24 3 -25 2 -9 -21 9 -14 25 -24 39 -24 15 0 39 -15 63
-40 30 -31 37 -45 33 -66 -6 -33 15 -72 42 -76 13 -2 21 -10 21 -23 0 -18 -5
-20 -50 -16 -44 3 -48 2 -36 -13 7 -9 11 -23 7 -31 -8 -21 -63 -11 -128 21
-26 13 -56 24 -67 24 -11 0 -42 14 -68 30 -26 17 -52 30 -58 30 -12 0 -52 20
-158 79 -29 16 -63 32 -76 36 -60 18 -244 165 -232 184 12 18 117 8 140 -13
20 -18 51 -16 51 3 0 23 -21 61 -34 61 -7 0 -21 11 -30 25 -13 19 -22 24 -40
19 -15 -3 -34 1 -49 11 -29 18 -88 17 -95 -3 -2 -7 9 -15 27 -18 35 -7 39 -20
14 -40 -25 -18 -36 -17 -63 6 -23 20 -23 21 -4 35 10 8 14 15 7 15 -6 0 -15
-4 -18 -10 -10 -16 -17 -12 -60 26 -47 42 -85 63 -102 57z m1907 -628 c23 -8
44 -14 48 -14 20 3 32 -3 32 -16 0 -8 8 -14 18 -13 37 3 63 -2 57 -12 -4 -6
-11 -8 -17 -4 -5 3 -24 -2 -42 -11 -30 -16 -43 -17 -122 -7 -100 13 -137 33
-142 77 l-4 28 66 -7 c35 -3 83 -13 106 -21z"/>
<path d="M7547 8764 c-16 -8 -43 -15 -60 -15 -39 -1 -89 -18 -100 -36 -4 -7
-25 -13 -45 -13 -51 0 -82 -10 -82 -25 0 -9 -16 -13 -51 -12 -29 0 -54 -5 -58
-11 -4 -7 -22 -10 -39 -8 -22 2 -32 -1 -32 -10 0 -10 -16 -12 -65 -9 -68 5
-77 1 -48 -20 16 -12 14 -16 -19 -47 -86 -77 -98 -85 -109 -67 -7 11 -9 10 -9
-3 0 -10 -7 -18 -15 -18 -8 0 -15 4 -15 9 0 5 -24 -4 -53 -19 -28 -15 -70 -33
-92 -40 -46 -14 -120 -55 -144 -79 -9 -9 -41 -27 -70 -40 -30 -12 -75 -37
-100 -54 -85 -58 -218 -127 -244 -127 -8 0 -17 -7 -21 -15 -3 -8 -13 -15 -21
-15 -9 0 -14 -4 -11 -8 3 -5 -21 -19 -52 -32 -31 -12 -81 -33 -110 -46 -29
-13 -58 -24 -66 -24 -16 0 -105 -28 -128 -40 -10 -6 -24 -7 -31 -4 -9 3 -16
-3 -20 -15 -3 -13 -13 -21 -25 -21 -12 0 -24 -5 -27 -10 -4 -7 -11 -8 -18 -1
-14 11 -67 3 -67 -10 0 -5 -15 -15 -32 -23 -25 -11 -28 -15 -13 -15 19 -1 19
-2 -2 -14 -62 -35 -86 -46 -115 -52 -18 -4 -46 -17 -62 -28 -21 -14 -31 -17
-34 -9 -2 7 -8 12 -14 12 -6 0 -8 -6 -5 -14 4 -9 -6 -22 -25 -34 l-30 -19 57
-1 c31 0 73 5 94 12 20 7 41 11 47 9 6 -2 17 3 24 12 7 8 21 15 31 15 10 0 20
4 23 9 7 11 76 20 76 9 0 -4 -5 -8 -11 -8 -6 0 -7 -5 -2 -12 4 -7 8 -19 10
-27 1 -7 7 -19 13 -25 8 -8 10 -7 5 5 -6 16 15 25 83 34 13 2 30 10 39 17 8 7
25 12 37 13 14 0 20 5 18 18 -2 10 3 17 13 17 9 0 18 7 21 15 4 8 14 15 24 15
10 0 20 7 24 15 3 9 18 15 36 15 17 0 29 5 28 12 -2 6 8 14 21 17 13 4 27 14
30 23 7 19 22 13 39 -17 14 -25 16 -1 2 26 -10 17 -7 19 22 21 18 1 51 0 74
-1 25 -1 45 3 52 12 7 9 22 12 39 9 16 -3 24 -1 20 6 -10 14 18 23 103 32 41
5 89 14 105 21 17 7 35 13 42 15 7 1 26 12 42 23 16 12 38 21 50 21 11 0 24 6
28 13 13 20 53 38 73 32 10 -3 21 -1 25 5 3 5 16 10 28 10 12 0 42 7 67 16 25
9 61 16 80 16 19 0 45 6 57 14 12 8 31 14 43 14 11 0 29 9 40 20 12 12 25 18
31 15 5 -4 24 3 43 14 18 12 45 21 59 21 32 0 57 24 57 56 0 17 6 24 20 24 17
0 18 -3 10 -26 -6 -14 -10 -35 -10 -46 0 -18 4 -19 38 -12 55 11 84 8 99 -11
9 -13 26 -17 63 -17 69 1 70 1 69 10 -4 22 4 33 32 47 17 9 28 19 25 22 -3 3
3 18 14 33 11 16 20 34 20 42 0 8 3 9 8 2 8 -13 111 -34 117 -24 2 3 2 16 -1
27 -6 20 -31 33 -64 33 -13 0 -13 -1 0 -10 24 -16 -4 -11 -38 6 -34 17 -38 24
-21 41 17 17 -9 28 -27 12 -13 -11 -19 -9 -35 11 -12 15 -17 18 -13 8 3 -10 1
-18 -5 -18 -6 0 -11 4 -11 9 0 6 -8 10 -17 10 -39 1 -60 7 -96 29 -34 22 -42
23 -85 12 -35 -8 -60 -8 -92 0 -25 6 -52 12 -59 14 -31 6 -19 22 37 47 31 15
80 30 107 33 66 9 103 21 205 66 47 20 104 43 128 50 29 9 42 19 42 32 0 22
-6 22 -43 2z"/>
<path d="M5994 8666 c-3 -9 -4 -22 -1 -30 3 -8 -1 -20 -10 -27 -13 -11 -14
-10 -12 6 4 22 -7 45 -22 45 -5 0 -9 -7 -9 -15 0 -8 -7 -15 -16 -15 -11 0 -14
-6 -8 -22 9 -30 9 -30 39 -30 14 0 28 -4 31 -9 3 -5 16 -6 30 -3 14 4 24 2 24
-4 0 -6 29 -11 72 -11 39 0 92 -5 118 -12 60 -15 117 -5 125 22 12 37 40 18
43 -29 3 -35 0 -42 -15 -42 -16 -1 -16 -2 -2 -10 10 -6 38 -6 75 1 32 6 77 13
99 16 22 3 45 9 50 13 6 3 26 7 45 9 41 2 52 11 40 30 -7 12 -11 12 -24 2 -9
-7 -22 -11 -30 -8 -8 3 -22 -1 -33 -8 -26 -20 -33 -18 -33 10 0 37 47 54 174
64 6 1 6 5 0 11 -6 6 -51 13 -100 15 -213 11 -304 17 -374 26 -41 5 -119 12
-172 16 -85 5 -98 3 -104 -11z"/>
<path d="M4864 8379 c-4 -7 -3 -14 4 -17 13 -4 5 -63 -10 -73 -5 -3 -2 -12 7
-19 15 -13 21 -40 8 -40 -5 0 -21 9 -38 20 -36 24 -77 30 -217 33 -78 2 -109
-1 -112 -10 -4 -9 6 -11 32 -9 52 5 104 -4 99 -18 -2 -6 -18 -12 -36 -13 -18
-1 -38 -4 -46 -6 -7 -3 -21 1 -32 8 -22 17 -34 19 -30 4 4 -21 -31 -35 -53
-22 -13 9 -27 10 -43 4 -13 -5 -29 -6 -36 -1 -7 4 -29 4 -49 -1 -20 -4 -40 -5
-45 -2 -6 3 -53 7 -106 9 -53 2 -121 7 -151 12 -37 7 -57 6 -61 0 -8 -13 -96
-2 -104 13 -8 12 -51 12 -75 -1 -13 -7 -21 -6 -29 4 -18 21 8 35 59 31 25 -1
53 1 63 7 10 5 26 6 35 2 23 -10 46 -13 127 -19 134 -9 294 -12 305 -5 10 6
-59 19 -145 26 -16 1 -30 3 -30 4 0 1 -18 3 -40 5 -113 9 -247 29 -260 39 -20
14 -264 3 -320 -15 l-40 -13 55 -8 c34 -6 63 -5 77 1 13 6 25 7 28 1 3 -5 11
-7 18 -5 20 8 41 -11 33 -30 -5 -13 -16 -16 -56 -12 -28 3 -50 1 -50 -4 0 -5
6 -9 13 -10 27 -2 53 -7 70 -14 10 -4 17 -3 17 5 0 12 58 -29 59 -42 1 -3 -10
-10 -24 -15 -24 -8 -24 -9 -10 -31 19 -26 35 -29 35 -6 0 9 11 27 25 40 24 22
28 22 58 10 17 -8 47 -20 65 -26 17 -7 32 -18 32 -25 0 -8 6 -15 13 -18 20 -6
47 4 47 19 0 12 5 11 25 -2 14 -9 34 -14 46 -11 11 3 44 -2 72 -12 29 -10 78
-21 109 -24 31 -4 88 -18 126 -32 43 -16 98 -26 149 -29 57 -3 94 -11 129 -28
55 -27 147 -36 169 -18 8 7 19 9 24 5 10 -6 85 15 149 42 27 12 31 17 21 29
-20 24 13 57 93 96 40 19 83 38 96 42 19 6 22 14 21 44 -2 20 -10 44 -18 53
-21 20 -136 40 -151 25 -8 -8 -14 -6 -21 7 -6 9 -21 17 -33 17 -13 0 -26 7
-30 15 -6 17 -52 20 -61 4 -5 -7 -13 -5 -25 6 -14 13 -20 13 -26 4z"/>
<path d="M7665 8367 c-21 -63 -23 -203 -2 -169 5 6 17 12 27 12 33 0 90 33 90
52 0 9 9 22 21 28 12 7 18 18 15 26 -4 11 0 13 22 7 25 -6 26 -5 12 13 -25 32
-42 38 -113 40 -46 2 -69 -1 -72 -9z"/>
<path d="M1440 8255 c0 -8 -4 -15 -9 -15 -12 0 -20 -36 -14 -60 3 -13 14 -20
28 -20 12 0 28 -7 35 -15 7 -8 17 -15 23 -15 5 0 15 -7 21 -16 13 -17 47 -21
84 -9 17 6 22 3 22 -9 0 -10 9 -16 25 -16 20 0 25 5 25 25 0 16 -6 25 -15 25
-10 0 -15 11 -15 35 0 35 -31 67 -45 46 -7 -13 -85 29 -85 46 0 9 -14 13 -40
13 -29 0 -40 -4 -40 -15z"/>
<path d="M4484 7990 c-32 -13 -38 -29 -18 -51 25 -27 5 -43 -50 -40 -39 2 -47
-2 -69 -30 -31 -40 -27 -52 24 -72 33 -13 45 -14 66 -4 21 10 27 9 31 -2 3
-10 8 -7 17 9 7 13 23 24 38 26 35 3 97 52 97 74 0 11 -12 24 -29 31 -15 7
-37 25 -47 41 -20 30 -27 32 -60 18z"/>
<path d="M4190 7885 c-19 -13 -44 -30 -54 -38 -18 -13 -25 -45 -27 -129 -1
-29 -17 -30 -44 -4 -32 32 -36 32 -65 1 -19 -20 -22 -30 -14 -43 29 -46 109
-8 163 77 18 28 37 51 41 51 4 0 10 8 12 18 3 10 22 26 42 36 38 18 47 40 20
50 -24 9 -36 6 -74 -19z"/>
<path d="M7690 7801 c0 -6 13 -19 29 -29 l29 -18 -29 -13 c-17 -7 -35 -25 -40
-39 -6 -15 -15 -30 -21 -33 -18 -12 2 -29 27 -23 12 3 26 1 29 -5 4 -6 16 -11
27 -11 14 0 19 7 19 28 0 19 9 35 28 48 33 25 62 36 62 25 0 -10 39 -55 44
-50 2 2 9 15 16 28 12 22 10 27 -16 48 -16 12 -33 22 -39 21 -5 -1 -23 5 -40
12 -43 18 -125 25 -125 11z"/>
<path d="M7660 7570 c-12 -7 -13 -13 -3 -27 6 -10 16 -17 22 -16 6 2 15 -6 21
-16 7 -15 6 -23 -5 -35 -18 -18 -19 -33 -2 -39 9 -4 9 -6 -1 -6 -25 -2 4 -70
30 -71 3 0 12 17 19 38 6 20 15 39 18 42 9 8 41 67 41 77 0 9 -47 33 -66 33
-6 0 -17 7 -24 15 -14 17 -29 19 -50 5z"/>
<path d="M12 7500 c-15 -24 -16 -156 -1 -166 6 -3 9 -15 6 -25 -4 -16 -1 -18
19 -13 20 5 24 2 24 -15 0 -14 9 -25 28 -32 59 -23 87 -22 146 7 53 26 56 29
34 37 -14 5 -24 4 -26 -2 -7 -20 -22 -11 -22 13 0 41 -11 56 -40 56 -20 0 -31
6 -35 20 -8 25 -21 26 -34 3 -8 -14 -10 -9 -11 25 0 23 -4 42 -9 42 -5 0 -12
8 -14 18 -4 13 -5 11 -6 -5 0 -13 -7 -23 -16 -23 -9 0 -12 6 -9 15 7 18 -3 65
-14 65 -4 0 -13 -9 -20 -20z"/>
<path d="M7405 7430 c-3 -5 -1 -10 5 -10 7 0 9 -7 6 -17 -9 -22 41 -96 60 -89
18 7 44 -3 44 -18 0 -13 49 -15 68 -3 20 13 14 46 -15 75 -15 15 -26 33 -25
40 5 22 -24 13 -38 -13 -14 -26 -33 -35 -24 -11 3 8 -8 22 -29 35 -39 24 -43
25 -52 11z"/>
<path d="M845 7285 c-22 -8 -41 -15 -41 -15 -1 0 -5 -12 -8 -26 -8 -31 1 -64
17 -64 7 0 22 -8 35 -18 22 -17 25 -17 78 7 30 14 54 31 54 37 0 6 7 17 15 24
19 16 20 41 1 34 -8 -3 -17 0 -21 5 -3 6 -11 9 -16 5 -5 -3 -21 1 -34 10 -29
19 -29 19 -80 1z"/>
<path d="M5887 7113 c-31 -16 -39 -62 -19 -103 13 -28 18 -30 46 -24 17 4 36
14 43 23 11 15 12 14 13 -1 0 -22 20 -24 20 -3 0 9 12 18 30 22 27 5 60 35 60
54 0 25 -157 51 -193 32z"/>
<path d="M6191 6527 c-17 -17 -14 -25 20 -55 18 -16 32 -39 32 -53 1 -18 6
-25 16 -21 10 4 12 -1 7 -16 -7 -22 8 -39 19 -22 5 8 11 6 18 -4 13 -16 94
-25 115 -12 20 12 13 29 -9 23 -17 -5 -20 -2 -16 14 3 10 1 22 -4 25 -6 3 -7
14 -4 25 5 14 2 19 -10 19 -11 0 -15 -5 -11 -15 3 -8 2 -15 -2 -15 -15 1 -40
26 -43 45 -5 21 -70 70 -98 72 -10 1 -24 -4 -30 -10z"/>
<path d="M4217 5902 c-10 -2 -17 -11 -16 -20 4 -30 -12 -116 -28 -151 -9 -19
-13 -47 -10 -66 5 -29 2 -33 -30 -44 -23 -9 -32 -16 -25 -23 12 -12 52 -1 52
14 0 6 17 -8 38 -32 l37 -42 -1 111 c-1 61 2 111 6 111 5 0 16 3 26 7 13 5 16
3 11 -10 -3 -9 -2 -17 3 -17 18 0 20 39 5 81 -9 24 -19 52 -22 61 -6 19 -21
26 -46 20z"/>
<path d="M5150 5517 c0 -9 -11 -29 -25 -45 l-25 -30 36 -30 c40 -34 40 -47 -2
-114 -26 -41 -30 -53 -13 -42 8 5 9 2 1 -12 -8 -14 -6 -21 5 -30 23 -16 7 -34
-29 -34 -23 0 -29 4 -24 16 4 10 1 14 -6 12 -7 -3 -12 -12 -12 -21 1 -9 2 -23
3 -31 0 -8 14 -20 31 -28 38 -17 44 -34 18 -52 -11 -8 -17 -19 -13 -26 4 -6 1
-17 -5 -25 -16 -20 11 -31 38 -16 11 6 22 7 26 4 11 -11 6 -33 -8 -33 -20 0
-37 -25 -30 -44 4 -10 13 -15 21 -12 8 4 17 -4 23 -19 5 -14 14 -25 20 -25 17
0 11 29 -9 47 -16 13 -17 20 -9 39 6 13 18 24 25 24 8 0 12 4 8 9 -3 5 6 22
20 37 30 32 32 54 6 61 -14 4 -19 14 -19 36 0 18 -2 52 -5 76 -3 26 -1 38 4
30 6 -10 9 -8 9 9 0 12 -1 24 -2 25 -2 2 3 11 10 20 9 10 11 24 6 39 -4 13 -8
32 -9 43 -1 32 -48 75 -73 68 -12 -3 -22 -1 -22 5 0 5 9 12 20 15 14 3 20 14
21 34 l1 28 9 -25 8 -25 -2 24 c-2 26 -27 42 -27 18z"/>
<path d="M5114 4789 c-6 -8 -14 -22 -17 -32 -4 -9 -17 -22 -29 -27 -22 -8 -22
-9 5 -9 27 -1 27 -1 11 -26 -9 -14 -22 -25 -29 -25 -7 0 -15 -6 -18 -14 -5
-13 45 -46 70 -46 19 0 63 -25 63 -36 0 -7 -9 -14 -21 -17 -26 -7 -20 -32 7
-32 11 0 19 7 19 17 0 9 4 20 8 24 4 4 7 21 7 37 0 25 -2 28 -15 17 -13 -10
-19 -9 -35 5 -17 16 -18 20 -6 34 7 9 11 22 9 29 -3 6 0 12 6 12 6 0 11 -9 11
-20 0 -13 7 -20 20 -20 13 0 20 -7 20 -20 0 -11 3 -20 8 -20 21 1 62 53 62 80
0 16 -49 32 -117 39 -7 0 -16 15 -21 32 -6 25 -10 28 -18 18z"/>
<path d="M4270 3133 c-19 -9 -20 -13 -7 -13 9 0 17 -7 17 -15 0 -8 5 -15 10
-15 6 0 10 -12 10 -26 0 -23 -3 -26 -30 -22 -16 3 -30 1 -30 -3 0 -13 28 -29
42 -24 8 3 21 -1 28 -10 7 -8 19 -15 26 -15 8 0 14 -7 14 -17 0 -15 36 -69 66
-100 7 -7 24 -13 38 -13 21 0 26 5 26 25 0 38 -19 70 -51 84 -19 8 -29 20 -29
35 0 13 -12 31 -29 44 -16 12 -34 37 -41 56 -13 41 -26 47 -60 29z"/>
<path d="M5605 140 c4 -25 11 -49 16 -54 12 -13 12 -53 -1 -61 -20 -13 0 -22
42 -20 25 2 44 8 47 16 2 8 17 26 32 42 l28 27 -22 35 c-12 19 -25 34 -29 35
-4 0 -19 5 -35 12 -15 6 -41 12 -56 12 -28 1 -28 0 -22 -44z"/>
<path d="M2999 130 c-14 -4 -38 -16 -53 -25 -15 -10 -46 -22 -69 -26 -149 -27
-186 -35 -193 -42 -4 -4 -20 -7 -34 -7 -42 0 -90 -11 -90 -21 0 -5 144 -9 321
-9 l321 0 -7 37 c-9 50 -13 55 -38 47 -12 -3 -19 -3 -15 1 11 12 -52 48 -87
50 -16 1 -42 -2 -56 -5z"/>
</g>
</svg>
