<?xml version="1.0" standalone="no"?>
<!DOCTYPE svg PUBLIC "-//W3C//DTD SVG 20010904//EN"
 "http://www.w3.org/TR/2001/REC-SVG-20010904/DTD/svg10.dtd">
<svg version="1.0" xmlns="http://www.w3.org/2000/svg"
 width="235.000000pt" height="286.000000pt" viewBox="0 0 235.000000 286.000000"
 preserveAspectRatio="xMidYMid meet">
<metadata>
Created by potrace 1.16, written by Peter Selinger 2001-2019
</metadata>
<g transform="translate(0.000000,286.000000) scale(0.100000,-0.100000)"
fill="#000000" stroke="none">
<path d="M0 1430 l0 -1430 1175 0 1175 0 0 1430 0 1430 -1175 0 -1175 0 0
-1430z m1242 678 c89 -186 247 -284 476 -295 98 -5 112 -8 112 -24 0 -33 12
-49 38 -49 14 0 45 -9 69 -21 58 -28 93 -87 93 -158 0 -93 -50 -150 -154 -173
-56 -12 -59 -15 -71 -54 -25 -84 -79 -169 -160 -249 -92 -92 -166 -136 -281
-165 -146 -38 -313 -18 -447 52 -124 65 -264 233 -302 362 -12 39 -15 42 -71
54 -104 23 -154 80 -154 173 0 71 35 130 93 158 24 12 55 21 69 21 26 0 38 16
38 51 0 17 8 19 68 19 111 0 191 17 278 60 104 51 196 144 239 243 16 37 30
67 31 67 1 0 17 -33 36 -72z m-685 -994 c45 -34 66 -79 67 -144 1 -67 -27
-126 -72 -155 -31 -20 -31 -21 -32 -107 l0 -88 -40 0 -40 0 0 82 0 81 -41 35
c-23 20 -48 51 -55 69 -33 78 -3 196 60 234 46 28 111 25 153 -7z m1263 -73
c0 -71 2 -82 22 -95 30 -21 44 -20 68 4 16 16 20 33 20 96 0 56 3 75 13 72 8
-3 14 -34 17 -87 4 -58 9 -85 20 -91 21 -14 43 -12 65 4 16 12 20 29 23 95 7
135 22 90 22 -62 0 -160 -5 -172 -72 -186 l-33 -7 -3 -82 -3 -82 -39 0 -40 0
0 80 c0 56 -4 82 -12 84 -7 3 -25 7 -40 10 -46 10 -58 49 -58 189 0 68 3 127
7 130 17 18 23 1 23 -72z m-702 -168 c84 -15 100 -15 185 0 50 9 102 19 115
23 20 6 22 3 22 -27 0 -43 -16 -99 -34 -124 -14 -19 -15 -19 -67 10 -46 26
-65 30 -129 30 -64 0 -83 -4 -129 -30 -52 -29 -53 -29 -67 -10 -18 25 -34 81
-34 124 0 30 2 33 23 27 12 -4 64 -14 115 -23z m187 -142 c144 -66 184 -246
80 -369 -87 -104 -263 -104 -350 0 -40 48 -58 95 -58 158 0 127 103 230 233
230 32 0 72 -8 95 -19z m-654 -180 c25 -26 29 -37 29 -85 0 -45 -4 -57 -20
-66 -17 -9 -20 -21 -20 -70 0 -32 5 -71 12 -86 11 -23 10 -28 -11 -45 -20 -17
-41 -19 -168 -19 -139 0 -145 1 -168 25 -24 23 -25 28 -25 175 0 147 1 152 25
175 23 24 28 25 170 25 l147 0 29 -29z m1464 4 c24 -23 25 -28 25 -175 0 -147
-1 -152 -25 -175 -23 -24 -29 -25 -168 -25 -127 0 -148 2 -168 19 -21 17 -22
22 -11 45 7 15 12 54 12 86 0 49 -3 61 -20 70 -16 9 -20 21 -20 66 0 48 4 59
29 85 l29 29 147 0 c142 0 147 -1 170 -25z m-1104 -221 c18 -20 57 -47 84 -60
103 -49 235 -23 314 60 l35 36 153 0 153 0 0 -35 c0 -54 -28 -112 -65 -135
-31 -19 -48 -20 -475 -20 -427 0 -444 1 -475 20 -37 23 -65 81 -65 135 l0 35
153 0 153 0 35 -36z"/>
<path d="M877 1613 c-65 -21 -106 -40 -104 -47 2 -6 12 -11 23 -11 16 0 20
-10 25 -67 6 -82 26 -108 79 -108 24 0 43 7 55 20 25 28 32 115 12 163 l-16
37 32 8 c33 8 44 35 17 38 -8 1 -64 -14 -123 -33z"/>
<path d="M1405 1640 c-10 -16 2 -27 35 -34 27 -5 30 -8 20 -25 -5 -11 -10 -51
-10 -90 0 -81 19 -111 69 -111 52 0 74 28 80 106 5 59 9 69 25 69 11 0 21 5
23 11 2 7 -41 26 -111 48 -129 41 -123 39 -131 26z"/>
</g>
</svg>
